<?xml version="1.0" standalone="no"?>
<!DOCTYPE svg PUBLIC "-//W3C//DTD SVG 20010904//EN"
 "http://www.w3.org/TR/2001/REC-SVG-20010904/DTD/svg10.dtd">
<svg version="1.0" xmlns="http://www.w3.org/2000/svg"
 width="374.000000pt" height="378.000000pt" viewBox="0 0 374.000000 378.000000"
 preserveAspectRatio="xMidYMid meet">

<g transform="translate(0.000000,378.000000) scale(0.100000,-0.100000)"
fill="#000000" stroke="none">
<path d="M1776 3004 c-32 -19 -111 -62 -175 -95 -64 -34 -143 -77 -176 -96
-33 -19 -66 -38 -74 -42 -8 -4 -19 -15 -25 -24 -17 -27 3 -47 90 -93 l79 -42
3 -128 c1 -70 7 -133 13 -140 5 -6 33 -20 61 -29 60 -19 166 -71 234 -115 58
-36 68 -37 110 -5 43 33 175 98 241 120 29 9 58 24 64 31 8 10 11 55 10 139
l-2 124 50 26 c28 14 53 25 56 25 3 0 5 -36 5 -80 0 -56 -5 -88 -15 -104 -33
-50 22 -103 72 -70 25 15 30 53 12 71 -8 8 -10 54 -7 148 3 90 1 138 -6 144
-6 5 -74 41 -151 81 -77 40 -189 99 -248 132 -61 33 -119 58 -135 57 -15 0
-53 -16 -86 -35z m192 -75 c52 -29 153 -82 224 -119 71 -37 130 -71 130 -75 0
-9 -27 -24 -252 -142 -69 -36 -140 -74 -158 -85 -25 -16 -40 -18 -61 -12 -37
12 -440 227 -441 236 0 3 44 30 98 58 53 29 135 73 182 98 47 25 103 56 125
68 22 13 44 23 49 24 5 0 51 -23 104 -51z m-254 -434 c120 -63 148 -74 167
-66 13 5 80 39 149 75 68 36 128 66 132 66 4 0 8 -43 8 -95 0 -69 -3 -95 -12
-95 -22 0 -170 -68 -232 -107 l-60 -36 -35 22 c-50 31 -213 109 -245 117 -26
6 -26 7 -26 100 0 52 2 94 6 94 3 0 70 -34 148 -75z"/>
<path d="M1183 2354 c-10 -4 -13 -87 -13 -364 0 -274 3 -360 13 -367 6 -6 58
-15 113 -21 171 -19 371 -99 506 -201 30 -22 60 -41 66 -41 7 0 32 16 58 35
142 109 358 194 529 210 39 4 78 9 88 11 16 5 17 31 17 369 l0 365 -24 6 c-28
7 -131 -11 -209 -36 -125 -41 -296 -143 -405 -242 l-53 -48 -59 51 c-127 112
-299 209 -440 247 -81 22 -167 34 -187 26z m1317 -368 l0 -315 -47 -5 c-184
-22 -344 -79 -510 -181 -29 -18 -43 -22 -44 -13 0 7 0 123 0 258 l1 245 58 53
c149 138 362 246 535 271 4 1 7 -140 7 -313z m-1124 279 c143 -48 293 -137
399 -236 l60 -57 1 -256 c0 -141 -2 -256 -4 -256 -3 0 -28 15 -56 34 -124 81
-312 149 -458 166 -45 6 -84 10 -85 10 -2 0 -3 140 -3 310 l0 310 36 0 c19 0
69 -11 110 -25z"/>
<path d="M1160 1165 l0 -85 -32 20 c-42 25 -78 25 -127 0 -87 -44 -97 -195
-16 -258 38 -30 121 -31 159 -1 l26 20 0 -21 c0 -17 5 -21 28 -18 l27 3 3 213
2 212 -35 0 -35 0 0 -85z m-19 -131 c18 -20 24 -36 23 -71 -1 -59 -29 -88 -85
-88 -55 0 -79 29 -79 95 0 41 4 52 26 69 37 29 85 27 115 -5z"/>
<path d="M1735 1235 c-5 -2 -23 -6 -38 -10 -48 -10 -77 -51 -77 -106 0 -43 4
-51 36 -77 20 -17 53 -33 73 -37 68 -13 101 -32 101 -59 0 -40 -10 -54 -44
-66 -43 -14 -82 1 -104 40 -13 22 -22 28 -37 24 -34 -10 -38 -21 -21 -56 23
-48 62 -68 135 -68 53 0 64 4 95 31 44 38 54 83 31 133 -20 43 -33 50 -111 71
-71 18 -99 43 -90 78 13 51 98 58 135 11 17 -22 22 -23 45 -13 30 14 31 17 10
47 -24 34 -106 68 -139 57z"/>
<path d="M640 1025 l0 -205 125 0 125 0 0 30 0 30 -95 0 -95 0 0 60 0 60 80 0
80 0 0 30 0 30 -80 0 -80 0 0 55 0 55 95 0 95 0 0 30 0 30 -125 0 -125 0 0
-205z"/>
<path d="M2015 1104 c-47 -23 -75 -72 -75 -127 0 -102 52 -157 148 -157 45 0
57 4 89 33 37 35 38 57 1 57 -11 0 -31 -9 -45 -20 -36 -28 -70 -25 -104 9 -45
45 -38 52 44 51 146 -3 137 -6 137 44 0 96 -105 155 -195 110z m109 -55 c47
-37 35 -49 -49 -49 -72 0 -75 1 -65 19 13 25 49 51 71 51 9 0 28 -9 43 -21z"/>
<path d="M2363 1100 c-27 -16 -33 -17 -33 -5 0 10 -10 15 -30 15 l-30 0 0
-145 0 -145 29 0 29 0 4 99 c3 110 18 141 68 141 49 0 60 -25 60 -138 l0 -102
30 0 30 0 2 88 c2 148 -2 166 -45 192 -41 25 -73 25 -114 0z"/>
<path d="M2630 1098 c-28 -19 -36 -31 -38 -60 -4 -48 19 -71 91 -92 58 -17 70
-30 55 -58 -13 -26 -73 -24 -92 3 -11 16 -21 20 -40 15 -33 -8 -33 -21 3 -57
24 -24 38 -29 78 -29 30 0 60 7 81 20 28 17 32 25 32 63 0 53 -16 70 -84 89
-57 17 -77 38 -57 62 19 22 57 20 75 -5 10 -15 20 -19 35 -14 28 8 27 26 -3
54 -36 34 -93 38 -136 9z"/>
<path d="M2920 1103 c-49 -25 -83 -93 -76 -151 12 -91 59 -132 151 -132 52 0
60 3 92 35 19 19 32 39 28 45 -10 16 -45 12 -72 -10 -35 -27 -78 -26 -108 5
-45 44 -35 50 77 50 l103 0 3 31 c4 43 -20 99 -52 119 -39 26 -105 29 -146 8z
m94 -45 c24 -10 44 -44 33 -54 -3 -3 -35 -4 -72 -2 l-68 3 27 33 c30 35 42 38
80 20z"/>
<path d="M1302 989 c3 -118 4 -121 31 -145 34 -29 110 -34 139 -7 17 15 18 15
18 0 0 -12 9 -17 30 -17 l30 0 0 145 0 145 -30 0 -30 0 0 -95 c0 -89 -2 -98
-25 -121 -18 -18 -32 -23 -52 -19 -45 8 -53 29 -53 137 l0 98 -31 0 -31 0 4
-121z"/>
</g>
</svg>
