<?xml version="1.0" standalone="no"?>
<!DOCTYPE svg PUBLIC "-//W3C//DTD SVG 20010904//EN"
 "http://www.w3.org/TR/2001/REC-SVG-20010904/DTD/svg10.dtd">
<svg version="1.0" xmlns="http://www.w3.org/2000/svg"
 width="1324.000000pt" height="1346.000000pt" viewBox="0 0 1324.000000 1346.000000"
 preserveAspectRatio="xMidYMid meet">

<g transform="translate(0.000000,1346.000000) scale(0.100000,-0.100000)"
fill="#000000" stroke="none">
<path d="M8964 12200 c-275 -49 -592 -307 -908 -741 -46 -63 -191 -285 -321
-494 -563 -901 -793 -1267 -808 -1286 -6 -9 -36 -24 -64 -33 -60 -20 -86 -50
-105 -120 -9 -35 -21 -52 -45 -67 -33 -21 -73 -76 -73 -101 0 -9 -14 -21 -30
-28 -65 -27 -90 -106 -56 -172 14 -26 12 -31 -25 -88 -92 -143 -110 -218 -73
-310 l16 -40 -49 -73 c-210 -306 -387 -563 -508 -737 -78 -113 -296 -430 -485
-705 -189 -275 -371 -539 -404 -587 -34 -48 -182 -264 -331 -480 -148 -216
-366 -532 -484 -703 -117 -170 -297 -431 -399 -580 -103 -148 -238 -345 -302
-437 -63 -92 -236 -344 -385 -560 -148 -216 -320 -464 -381 -553 -61 -88 -225
-326 -365 -530 -572 -830 -786 -1136 -880 -1259 -54 -72 -99 -136 -99 -143 0
-19 78 -59 150 -77 89 -21 283 -22 384 -1 634 132 1961 1004 3381 2220 506
433 890 790 1391 1290 400 399 666 682 918 976 83 97 155 177 160 178 5 1 37
-76 71 -171 131 -365 257 -626 430 -888 109 -166 196 -273 325 -400 171 -169
347 -281 520 -330 117 -34 283 -38 390 -11 315 79 569 345 761 795 76 179 104
211 244 281 111 56 195 70 282 50 75 -18 110 -18 116 -1 10 25 -20 52 -100 89
-129 60 -345 93 -416 63 -46 -19 -136 -91 -191 -154 -86 -97 -110 -149 -209
-443 -87 -256 -85 -253 -154 -279 -196 -74 -389 -39 -619 112 -123 81 -295
246 -406 388 -242 313 -459 719 -638 1190 l-61 161 59 82 c33 45 81 115 107
155 27 40 51 71 55 70 4 -2 31 -32 61 -68 78 -95 180 -189 256 -236 l66 -40
244 -509 c220 -460 254 -524 274 -525 10 0 40 30 114 114 38 43 97 98 131 122
76 54 220 216 235 264 6 19 18 42 25 50 7 9 18 39 25 68 l11 52 51 -7 c92 -14
286 -8 362 11 239 61 418 151 745 377 80 55 192 139 248 187 162 136 252 202
312 229 50 23 63 25 145 19 50 -3 112 -12 138 -21 74 -22 165 -75 199 -114
l30 -36 -6 33 c-22 124 -141 233 -315 292 -173 58 -454 27 -601 -65 -37 -24
-192 -180 -249 -252 -19 -24 -41 -43 -50 -43 -9 0 -59 -9 -111 -20 -248 -51
-498 -71 -705 -55 -112 8 -108 0 -69 143 36 130 81 198 169 255 62 40 119 50
195 36 96 -18 151 -17 163 2 19 29 -2 67 -63 114 l-59 47 45 41 c93 84 144
230 144 407 0 104 -14 148 -65 208 -26 31 -110 81 -165 97 -14 4 -92 38 -175
75 -82 38 -217 98 -300 133 -82 36 -546 239 -1030 452 -484 212 -893 389 -908
392 -28 6 -28 6 -6 21 25 17 69 106 69 140 0 12 -5 31 -12 41 -9 15 -5 29 22
77 19 32 41 70 51 84 9 14 86 138 171 275 86 138 215 345 288 460 149 235 207
329 435 695 251 403 287 447 393 486 158 57 197 77 254 126 70 61 118 129 148
212 31 83 25 198 -14 275 -109 212 -476 401 -702 361z m-1964 -2661 c0 -8
-116 -3 -130 6 -4 3 -10 1 -12 -5 -1 -5 -9 -6 -16 -1 -19 11 -4 39 26 49 21 7
38 3 80 -17 28 -14 52 -28 52 -32z m162 -109 c-12 -12 -22 -15 -22 -9 0 13 32
40 39 33 3 -2 -5 -13 -17 -24z m155 -107 c0 -21 -2 -30 -4 -20 -3 11 -11 16
-19 13 -8 -3 -14 -3 -14 -1 0 4 23 32 36 44 0 1 1 -16 1 -36z m181 -38 c18
-17 24 -33 24 -62 -1 -39 0 -39 31 -35 34 5 63 27 48 36 -5 4 -16 3 -24 0 -8
-3 -18 -1 -21 4 -3 6 5 13 19 16 18 5 60 -12 164 -64 136 -68 140 -71 131 -95
-30 -78 -63 -92 -120 -50 -19 14 -41 25 -51 25 -9 0 -32 11 -52 24 -19 13 -37
22 -40 20 -3 -4 -353 169 -365 180 -3 3 7 6 21 6 18 0 27 -5 27 -16 0 -14 3
-14 15 -4 8 7 15 10 15 6 0 -4 12 2 27 11 18 12 24 13 19 4 -6 -10 1 -22 24
-42 18 -16 38 -29 45 -29 14 0 28 52 16 60 -4 3 -10 15 -13 27 -5 20 -4 22 15
11 11 -6 32 -21 45 -33z m-418 -74 c72 -50 86 -65 67 -69 -9 -2 -12 -15 -11
-37 2 -19 0 -35 -3 -35 -10 0 -95 51 -144 86 -26 19 -51 34 -57 34 -6 0 -9 7
-8 15 3 20 66 66 80 58 6 -4 40 -27 76 -52z m180 -139 c0 -5 -13 -18 -29 -30
-25 -18 -31 -19 -47 -7 -11 7 -17 15 -14 17 41 27 90 38 90 20z m-440 -22 c0
-5 -2 -10 -4 -10 -3 0 -8 5 -11 10 -3 6 -1 10 4 10 6 0 11 -4 11 -10z m54 -21
c-4 -8 1 -9 16 -4 17 5 20 4 15 -5 -6 -10 -1 -11 19 -6 22 5 26 3 26 -14 0
-11 6 -20 13 -20 7 0 18 -10 26 -22 l13 -22 12 27 11 27 38 -26 c20 -15 37
-30 37 -34 0 -4 -11 -17 -24 -29 l-23 -22 -29 24 c-16 13 -64 45 -107 71 -42
27 -79 51 -81 55 -3 4 7 8 20 9 16 1 23 -2 18 -9z m473 -43 c-25 -39 -47 -119
-71 -267 -5 -29 -32 -61 -144 -175 -269 -272 -542 -632 -559 -737 -18 -111 97
-76 205 63 29 36 82 95 118 130 l65 65 -26 -60 c-59 -135 -171 -300 -335 -494
-93 -111 -240 -251 -262 -251 -16 0 -78 197 -98 314 -19 104 -8 180 40 276 89
181 465 637 790 959 143 141 236 217 243 198 3 -8 7 -6 12 6 6 14 10 15 21 6
12 -10 12 -15 1 -33z m342 -17 c87 -57 126 -154 83 -204 -32 -39 -96 -73 -150
-80 -53 -7 -53 -7 -96 38 -53 54 -100 132 -90 148 4 8 3 9 -4 5 -12 -7 -13 -6
-17 31 -2 15 2 20 13 15 10 -3 13 -1 8 6 -5 8 -1 10 10 5 13 -5 16 -3 11 9 -4
12 5 21 31 34 86 41 131 39 201 -7z m346 -224 c94 -69 178 -134 188 -146 9
-12 17 -18 17 -14 0 5 9 0 20 -10 11 -10 18 -21 15 -24 -2 -4 1 -13 7 -21 8
-12 9 -12 4 3 -7 22 3 21 32 -3 17 -14 22 -25 17 -40 -7 -21 2 -24 50 -21 12
1 30 -6 41 -16 20 -18 20 -19 2 -37 -10 -11 -18 -24 -17 -30 0 -7 2 -7 5 0 3
7 14 10 24 7 23 -6 22 -5 14 -28 -5 -13 -8 -14 -15 -3 -6 9 -9 9 -9 1 0 -7 9
-17 20 -23 17 -9 20 -8 17 11 -1 12 4 24 12 27 10 3 12 0 8 -11 -4 -11 -2 -14
8 -11 10 4 12 0 8 -17 -4 -16 -2 -20 8 -17 8 3 14 16 13 30 -1 19 3 25 13 21
8 -3 12 -11 10 -17 -3 -7 1 -20 9 -31 12 -17 14 -17 14 -2 0 9 5 17 11 17 6 0
9 -7 5 -15 -3 -9 0 -15 9 -15 8 0 15 -7 15 -15 0 -17 -34 -37 -46 -27 -5 4 -3
0 4 -10 11 -14 10 -17 -7 -23 -21 -6 -29 -25 -11 -25 6 0 10 5 10 10 0 6 5 10
11 10 6 0 8 -7 5 -16 -5 -12 -2 -15 9 -10 10 3 14 2 9 -5 -3 -6 3 -17 15 -25
27 -19 27 -37 1 -29 -16 5 -20 2 -20 -15 0 -12 4 -18 10 -15 6 4 8 12 4 18 -3
7 1 4 9 -6 9 -11 17 -14 20 -7 3 6 4 5 3 -2 -2 -7 -9 -12 -16 -10 -6 1 -10 -3
-7 -10 2 -7 9 -12 14 -11 6 1 21 4 34 7 50 9 59 17 55 47 -2 17 -1 27 2 24 3
-3 16 5 28 16 19 18 26 20 39 9 21 -17 19 -33 -4 -25 -12 4 -21 0 -25 -11 -4
-12 -2 -15 9 -11 8 4 17 2 20 -3 4 -6 -1 -10 -10 -10 -10 0 -13 -5 -9 -12 5
-8 0 -9 -17 -5 -22 5 -22 5 -6 -7 9 -7 29 -11 43 -8 18 3 29 -1 40 -17 13 -18
17 -19 30 -7 8 8 14 23 15 33 0 10 6 3 14 -17 7 -20 9 -39 4 -44 -13 -15 -10
-49 6 -70 8 -11 15 -15 15 -9 0 6 11 8 26 5 22 -4 25 -9 20 -33 -3 -17 -1 -29
7 -32 8 -3 5 -10 -8 -21 -11 -8 -15 -16 -8 -16 13 0 12 -18 -2 -40 -5 -8 -8
-27 -7 -42 2 -19 -3 -28 -12 -28 -12 0 -13 -7 -5 -34 6 -21 6 -42 0 -57 -5
-13 -10 -18 -10 -11 -1 7 -6 10 -11 7 -7 -4 -7 -12 -1 -23 7 -12 5 -22 -4 -32
-8 -8 -15 -28 -18 -44 -2 -16 -10 -34 -18 -40 -26 -20 -51 -68 -46 -87 3 -10
1 -21 -3 -24 -17 -10 -39 8 -77 63 -89 127 -498 713 -660 944 -231 330 -221
315 -234 361 -12 44 -5 87 14 87 6 0 89 -56 182 -125z m179 -5 c58 -26 85 -50
56 -50 -12 0 -139 79 -128 80 3 0 36 -13 72 -30z m-764 -55 l25 -30 -27 24
c-16 14 -28 29 -28 34 0 6 1 8 3 6 1 -2 13 -17 27 -34z m-825 -77 c52 -35 95
-66 95 -69 0 -4 -14 -22 -31 -40 -135 -145 -459 -565 -459 -596 0 -5 -12 -34
-27 -64 -26 -51 -28 -61 -27 -184 1 -122 3 -136 36 -230 20 -55 54 -140 76
-190 78 -177 91 -434 34 -712 l-26 -132 21 -110 c12 -60 33 -137 46 -171 21
-52 22 -60 8 -56 -9 2 -25 7 -36 10 -12 3 -30 -3 -45 -15 -14 -11 -19 -18 -13
-14 7 3 21 1 32 -5 14 -7 22 -7 27 2 5 7 3 8 -6 3 -9 -6 -11 -4 -5 4 6 10 11
9 23 -3 25 -24 5 -67 -42 -90 -24 -12 -34 -21 -26 -26 8 -5 7 -12 -6 -24 -12
-13 -13 -17 -3 -16 29 5 39 -1 39 -21 0 -11 5 -17 10 -14 12 7 9 -17 -3 -26
-12 -9 71 -62 87 -56 18 7 21 3 31 -40 6 -29 4 -33 -13 -33 -25 0 -33 -20 -16
-37 19 -20 40 -17 23 3 -10 13 -10 17 2 25 24 15 37 10 32 -11 -3 -12 0 -20 7
-20 8 0 10 -9 6 -27 -7 -25 -6 -26 16 -11 25 16 89 9 96 -11 2 -5 10 -7 18 -4
8 3 14 -1 14 -8 0 -10 17 -15 54 -17 48 -2 54 0 60 20 3 13 9 19 13 13 5 -6
21 -17 37 -25 15 -8 32 -24 37 -36 4 -13 14 -26 21 -31 19 -12 41 -59 34 -72
-4 -6 -14 -11 -23 -11 -12 0 -14 -7 -9 -32 6 -30 5 -31 -8 -13 -15 20 -15 20
-16 0 0 -12 -5 -26 -11 -32 -7 -7 -6 -14 4 -24 11 -12 11 -17 -6 -34 -19 -20
-19 -20 -13 5 3 14 3 19 0 12 -3 -6 -11 -9 -17 -5 -7 3 -8 2 -4 -2 4 -5 -7
-17 -25 -27 -31 -17 -31 -18 -5 -12 21 5 27 2 27 -10 0 -9 8 -16 19 -16 26 0
34 -37 10 -43 -12 -3 -17 -1 -13 6 3 7 -3 2 -14 -10 -11 -13 -25 -23 -31 -23
-15 0 -14 -17 2 -23 6 -3 2 -6 -10 -6 -13 -1 -23 -7 -23 -16 0 -8 -9 -15 -20
-15 -11 0 -20 -6 -20 -12 0 -7 -7 -2 -16 10 -8 12 -19 20 -24 17 -5 -3 -13 3
-19 12 -6 10 -11 14 -11 9 0 -4 -8 2 -19 15 l-18 23 -12 -22 c-7 -13 -9 -32
-6 -42 5 -15 0 -22 -19 -30 -14 -5 -26 -12 -26 -15 0 -4 4 -4 9 0 5 3 12 1 16
-5 4 -6 11 -7 17 -4 7 5 9 -2 4 -20 -5 -21 -3 -27 6 -23 7 2 12 8 11 13 -2 15
25 35 32 24 3 -6 2 -10 -3 -10 -6 0 -9 -8 -8 -17 1 -14 -7 -18 -32 -18 -28 0
-32 -3 -28 -20 5 -19 4 -19 -8 -2 -18 23 -57 22 -102 -5 -33 -20 -38 -20 -48
-5 -16 20 -32 9 -30 -22 1 -22 0 -23 -11 -8 -7 9 -18 17 -25 17 -7 0 -21 10
-31 22 -11 11 -22 18 -26 14 -10 -10 -11 -76 -1 -82 4 -3 8 10 8 28 0 22 3 28
9 20 4 -8 7 -26 5 -40 -4 -33 14 -94 26 -87 5 3 13 -2 18 -11 11 -20 61 -22
73 -3 7 11 9 9 9 -6 1 -19 1 -19 13 1 8 15 18 19 31 15 10 -4 30 -6 45 -5 26
2 30 -7 22 -45 -1 -2 -9 3 -18 10 -15 12 -16 12 -11 -8 4 -16 1 -24 -14 -29
-17 -5 -17 -20 0 -18 10 1 32 -23 32 -35 0 -6 -11 -10 -24 -9 -14 1 -22 6 -20
10 3 5 10 6 15 3 5 -4 9 -1 9 4 0 13 -3 13 -24 5 -18 -7 -22 -64 -5 -64 8 0 8
-5 -1 -15 -7 -8 -18 -15 -24 -15 -6 0 -4 5 4 10 13 8 13 11 0 25 -14 13 -17
13 -33 -5 -9 -11 -14 -20 -12 -20 3 0 -2 -15 -11 -32 -15 -29 -15 -31 -1 -20
13 11 15 10 10 -7 -6 -22 -33 -30 -33 -10 0 6 -7 8 -16 5 -10 -4 -25 1 -35 10
-11 10 -19 14 -19 10 0 -4 -7 0 -16 9 -19 18 -48 12 -78 -18 -12 -11 -15 -17
-9 -13 7 4 22 2 33 -4 13 -7 20 -7 20 0 0 5 5 10 11 10 8 0 8 -4 -1 -14 -6 -8
-17 -13 -25 -10 -7 3 -19 -3 -26 -14 -8 -10 -24 -22 -36 -26 -25 -8 -30 -21
-11 -32 6 -4 8 -3 5 3 -8 12 22 27 32 17 3 -4 0 -9 -6 -11 -16 -6 -17 -33 -2
-33 5 0 7 -5 4 -10 -5 -8 -11 -7 -21 1 -12 10 -19 8 -37 -9 -16 -16 -18 -25
-10 -33 6 -6 17 -8 24 -3 7 4 25 9 39 10 l25 3 -28 -15 c-23 -13 -28 -20 -23
-40 5 -17 2 -26 -8 -30 -19 -7 -50 22 -43 39 6 15 -44 17 -55 2 -5 -6 -11 -5
-17 4 -5 8 -16 11 -25 8 -15 -6 -15 -4 0 18 9 14 14 31 11 40 -4 8 -1 17 4 21
6 3 2 12 -11 21 -11 8 -20 23 -18 33 2 11 0 19 -4 20 -24 1 -28 -1 -28 -15 0
-8 5 -15 11 -15 5 0 7 -4 4 -10 -3 -5 -17 -10 -31 -10 -17 0 -24 -6 -24 -19 0
-10 -7 -22 -16 -25 -8 -3 -13 -10 -10 -15 10 -15 -18 -31 -34 -19 -13 8 -12 9
1 5 12 -4 17 1 17 19 0 13 -4 24 -9 24 -5 0 -9 -6 -9 -13 0 -7 -13 -18 -30
-24 -26 -10 -30 -16 -30 -47 0 -24 5 -36 14 -36 18 0 24 -17 20 -57 -1 -19 2
-30 8 -27 5 3 7 12 4 20 -3 8 0 11 9 7 8 -3 12 -9 9 -14 -3 -5 1 -9 8 -10 10
0 10 -2 -1 -6 -9 -4 2 -13 29 -27 24 -11 46 -27 48 -35 3 -9 0 -11 -8 -6 -9 5
-11 4 -6 -4 6 -9 11 -9 21 -1 11 9 12 6 6 -17 -5 -17 -14 -26 -22 -24 -8 2
-23 3 -34 3 -10 -1 -25 4 -32 10 -9 7 -13 7 -13 0 0 -6 6 -12 13 -15 6 -3 -1
-10 -18 -18 -47 -20 -65 -19 -65 5 -1 19 -2 19 -11 4 -12 -22 29 -76 43 -56 5
9 8 8 8 -4 0 -10 5 -18 11 -18 5 0 7 5 3 12 -4 7 -3 8 5 4 14 -9 5 -26 -15
-26 -8 0 -14 -7 -14 -16 0 -8 -4 -13 -9 -10 -5 3 -15 -4 -24 -17 -8 -12 -34
-41 -58 -65 -33 -32 -49 -41 -66 -37 -13 3 -23 1 -23 -4 0 -5 -9 -13 -20 -16
-11 -4 -20 -12 -19 -18 3 -26 -2 -37 -16 -37 -9 0 -18 7 -21 15 -4 8 -10 15
-15 15 -4 0 -6 -7 -2 -16 5 -14 3 -15 -15 -5 -13 7 -19 17 -16 26 4 8 2 15 -4
15 -5 0 -12 -6 -15 -14 -7 -18 -44 -10 -44 10 0 8 7 14 16 15 11 0 12 2 3 6
-19 8 -57 -39 -58 -72 -1 -17 1 -24 3 -17 9 25 23 11 18 -18 -4 -22 -1 -32 10
-36 19 -8 20 -24 0 -24 -8 0 -15 -4 -15 -10 0 -5 8 -10 18 -10 14 0 15 -2 2
-10 -20 -13 -43 -13 -35 0 7 12 -8 14 -19 3 -4 -5 -13 -8 -19 -8 -11 0 -14
-23 -6 -55 3 -9 -3 -14 -13 -14 -10 1 -16 -3 -15 -8 4 -22 -648 -567 -884
-738 l-26 -19 5 24 c2 14 9 25 14 25 5 0 6 -5 2 -12 -4 -7 -3 -8 5 -4 9 6 6
14 -11 29 -21 20 -24 21 -30 5 -9 -22 -28 -23 -28 -2 0 11 -5 14 -16 10 -12
-5 -15 -2 -10 9 4 11 2 14 -6 9 -8 -5 -9 -2 -5 9 3 9 2 19 -4 22 -5 4 -9 3 -8
-2 1 -4 1 -14 0 -22 -2 -22 -41 18 -41 42 0 16 4 18 28 12 15 -4 35 -7 45 -7
9 0 17 -5 17 -11 0 -8 3 -8 8 1 7 10 15 10 37 2 21 -8 30 -8 36 2 4 6 5 16 3
20 -3 4 1 8 8 8 9 0 9 3 -2 10 -23 15 -29 12 -23 -10 6 -24 -9 -26 -31 -5 -11
12 -14 27 -10 59 6 39 4 44 -17 49 l-24 6 25 23 c21 19 22 23 8 26 -17 3 -20
10 -32 65 -4 15 -13 27 -21 27 -21 0 -39 40 -36 81 1 25 -4 41 -19 54 -11 10
-23 16 -26 13 -7 -8 -51 35 -47 45 2 4 -1 7 -6 7 -6 0 -11 9 -11 20 0 11 -5
20 -11 20 -5 0 -7 5 -3 12 5 8 2 9 -10 5 -13 -5 -17 -3 -13 5 3 10 -11 13 -53
13 -48 0 -62 -4 -78 -22 -11 -13 -24 -23 -31 -23 -6 0 -11 -8 -11 -19 0 -25
43 -33 71 -13 20 14 20 13 16 -17 -4 -24 -1 -34 14 -41 10 -6 19 -17 19 -24 0
-18 42 -29 52 -13 4 6 10 8 13 5 10 -10 -32 -51 -43 -44 -6 3 -12 -1 -16 -9
-3 -9 1 -15 10 -15 10 0 14 -6 11 -15 -4 -8 -2 -17 4 -20 5 -4 12 1 15 9 3 9
10 13 16 10 5 -3 7 -12 4 -20 -8 -21 7 -17 27 6 16 19 44 19 33 1 -3 -4 6 -14
19 -21 13 -7 22 -17 19 -22 -3 -5 -12 -4 -20 3 -12 10 -13 9 -8 -6 6 -15 4
-16 -15 -5 -13 7 -20 17 -17 26 4 11 2 12 -14 4 -10 -5 -29 -9 -41 -7 -15 1
-27 -7 -40 -30 -14 -25 -15 -33 -5 -33 7 0 21 -9 31 -20 18 -19 17 -21 -5 -40
-13 -11 -27 -20 -32 -20 -5 0 -7 -13 -3 -29 8 -36 -14 -46 -64 -30 -41 13 -61
27 -61 42 0 6 7 2 15 -9 11 -14 14 -15 9 -2 -4 11 0 16 12 15 11 -1 20 6 22
18 2 16 1 17 -7 5 -9 -12 -11 -9 -11 14 0 28 -1 29 -15 10 -8 -11 -15 -14 -15
-6 0 6 -5 12 -11 12 -6 0 -9 -7 -5 -15 5 -13 3 -13 -18 0 -13 9 -31 13 -40 9
-9 -3 -23 -1 -30 6 -12 9 -17 7 -27 -12 -11 -21 -11 -22 5 -8 16 12 20 12 36
-9 11 -16 20 -20 24 -12 4 6 13 11 19 11 7 0 4 -7 -6 -15 -13 -9 -17 -20 -12
-34 7 -24 16 -26 34 -9 10 11 15 9 27 -6 20 -27 18 -35 -11 -48 -14 -6 -24
-17 -21 -24 3 -8 0 -11 -10 -7 -7 3 -14 0 -14 -5 0 -6 10 -14 21 -17 16 -5 18
-9 8 -15 -10 -7 -10 -11 0 -24 9 -10 9 -16 3 -16 -6 0 -20 -9 -30 -20 -17 -18
-23 -19 -46 -9 -14 7 -26 18 -26 25 0 18 -23 23 -38 7 -8 -7 -19 -10 -25 -6
-8 5 -8 8 1 11 17 5 15 29 -4 36 -9 4 -14 13 -10 21 3 8 0 14 -6 12 -7 -1 -14
7 -16 18 -2 11 -15 32 -29 46 -18 20 -21 28 -11 33 7 3 2 3 -11 0 -13 -3 -21
-2 -18 2 3 5 -8 9 -24 10 -16 1 -29 -3 -29 -8 0 -5 -5 -6 -12 -2 -7 5 -8 3 -3
-5 4 -7 16 -11 26 -8 25 7 24 -4 -2 -32 -16 -17 -20 -30 -15 -52 3 -16 1 -29
-4 -29 -5 0 -16 -7 -24 -16 -9 -8 -16 -11 -16 -6 0 6 -7 13 -16 16 -14 5 -16
1 -11 -29 3 -20 2 -35 -4 -35 -6 0 -7 -5 -3 -11 5 -8 -1 -10 -20 -7 -26 5 -27
4 -20 -21 4 -14 6 -41 5 -59 -1 -22 6 -40 23 -57 13 -13 27 -21 30 -17 4 3 9
-4 13 -17 5 -18 11 -21 32 -17 14 3 20 3 13 0 -10 -5 -10 -9 -1 -20 9 -10 16
-11 32 -2 16 8 22 8 25 -1 6 -19 22 -12 22 9 0 11 5 20 11 20 5 0 7 -5 3 -12
-4 -7 -3 -8 5 -4 18 12 2 27 -24 22 -13 -2 -26 -1 -30 2 -7 7 -12 8 -40 11 -9
1 -12 7 -8 18 4 11 3 14 -5 9 -8 -5 -10 -2 -6 8 7 18 24 22 24 6 0 -5 9 -10
20 -10 11 0 20 -6 20 -14 0 -9 7 -13 20 -11 31 6 42 16 36 31 -3 8 -1 14 4 14
6 0 10 -5 10 -11 0 -5 5 -7 10 -4 6 4 8 10 5 14 -2 5 6 9 19 9 19 0 22 -5 18
-24 -4 -24 3 -28 40 -25 12 2 16 -3 12 -12 -4 -10 3 -13 26 -9 16 2 30 10 30
16 0 6 8 12 19 13 14 1 17 -3 14 -18 -3 -10 -9 -16 -14 -13 -5 3 -9 0 -9 -6 0
-6 -8 -9 -18 -6 -12 4 -23 -3 -35 -24 -16 -27 -8 -45 9 -19 4 8 9 7 16 -2 7
-12 11 -11 20 3 11 15 13 15 25 0 11 -15 14 -15 23 -2 6 10 10 11 10 3 0 -7 8
-10 18 -8 9 3 2 -2 -15 -10 -31 -14 -46 -45 -22 -45 5 0 8 4 5 9 -8 12 15 20
34 12 18 -7 20 -33 3 -38 -6 -2 -13 4 -16 14 -4 15 -5 14 -6 -4 0 -12 -6 -25
-11 -28 -8 -5 -7 -12 2 -23 11 -13 10 -15 -4 -9 -10 4 -18 2 -18 -4 0 -6 -6
-9 -14 -6 -7 3 -19 0 -25 -6 -10 -9 -11 -6 -6 16 5 18 3 27 -5 27 -6 0 -8 -4
-5 -10 3 -5 -1 -10 -10 -10 -12 0 -15 6 -10 21 6 17 3 20 -12 17 -10 -2 -18
-10 -19 -18 -3 -44 -4 -46 -14 -30 -8 12 -12 12 -18 2 -9 -13 -24 -15 -79 -8
-29 4 -31 2 -23 -18 5 -15 15 -20 33 -18 29 3 43 -21 22 -38 -11 -9 -12 -17
-4 -32 9 -17 7 -24 -10 -41 -18 -19 -21 -19 -21 -4 0 9 -7 17 -16 17 -13 0
-14 -3 -4 -15 6 -8 9 -19 5 -25 -5 -8 -12 -5 -21 7 -10 13 -14 14 -12 3 2 -8
-7 -19 -19 -25 -13 -5 -23 -15 -23 -22 0 -7 -9 -13 -20 -13 -11 0 -20 -5 -20
-12 0 -6 -10 -22 -22 -35 -20 -21 -22 -21 -34 -5 -13 16 -13 16 -14 0 0 -22
-9 -23 -38 -2 -29 20 -52 12 -52 -18 0 -19 -2 -20 -10 -8 -6 9 -13 11 -17 5
-5 -5 -18 -18 -30 -28 -21 -18 -22 -18 -16 2 3 12 9 24 14 27 5 3 9 10 9 15 0
6 -4 8 -8 5 -5 -3 -15 5 -22 18 -10 19 -18 23 -44 19 -17 -3 -35 -9 -41 -14
-14 -14 -25 -11 -25 6 0 8 -5 15 -11 15 -7 0 -17 7 -23 16 -10 14 -14 13 -29
-4 -17 -19 -17 -20 17 -26 33 -6 35 -8 24 -32 -7 -15 -17 -23 -25 -20 -9 4
-11 1 -7 -6 5 -7 2 -9 -9 -5 -11 4 -18 -1 -22 -15 -5 -14 -10 -17 -18 -9 -16
16 -27 14 -21 -4 7 -18 -44 -64 -72 -65 -25 0 -40 28 -24 44 5 5 10 16 10 24
0 10 -7 8 -26 -7 -34 -27 -48 -27 -33 0 15 28 -10 22 -25 -6 -6 -11 -17 -25
-25 -31 -8 -6 -11 -16 -6 -24 6 -10 9 -9 16 1 6 10 9 11 9 2 0 -7 5 -13 10
-13 6 0 10 7 8 16 -2 10 3 19 10 21 17 7 16 -47 -2 -61 -13 -9 -12 -13 7 -27
20 -15 25 -15 42 -3 10 8 13 14 7 14 -7 0 -12 9 -12 20 0 28 25 25 38 -4 10
-21 8 -26 -8 -31 -11 -4 -20 -11 -20 -16 0 -6 6 -7 13 -2 6 4 17 8 22 9 6 0
15 2 22 2 6 1 15 12 19 24 l7 23 8 -22 c7 -19 12 -21 40 -13 17 5 36 7 40 4 5
-3 9 0 9 7 0 7 3 9 6 6 4 -4 1 -13 -5 -21 -7 -8 -10 -20 -6 -26 3 -5 1 -10 -5
-10 -7 0 -10 -6 -7 -13 7 -19 -50 -52 -66 -38 -8 6 -18 7 -27 0 -13 -9 -13 -9
0 -7 29 6 25 -17 -5 -32 -16 -8 -44 -25 -62 -38 -41 -29 -49 -28 -28 4 12 18
14 29 6 35 -6 5 -9 6 -6 2 7 -10 -26 -43 -37 -37 -5 3 -8 0 -6 -8 2 -7 -1 -13
-7 -13 -5 0 -10 10 -10 22 1 12 -3 19 -8 16 -5 -3 -7 -16 -4 -29 3 -17 0 -24
-10 -24 -9 0 -13 -6 -10 -15 4 -8 2 -17 -2 -20 -5 -2 -11 6 -13 20 -3 14 -1
25 3 25 5 0 6 6 3 14 -4 11 -20 14 -60 11 -35 -2 -54 1 -54 9 -1 6 -8 -1 -16
-16 -11 -21 -22 -28 -44 -28 -21 0 -30 5 -30 16 0 12 -7 15 -24 12 -26 -5 -26
16 0 26 23 9 16 26 -10 26 -34 0 -52 -51 -32 -92 13 -26 13 -31 -2 -46 -10
-10 -16 -25 -14 -35 3 -17 -12 -24 -21 -9 -2 4 -2 1 -1 -5 2 -7 -1 -13 -6 -13
-6 0 -10 -4 -10 -10 0 -5 7 -10 15 -10 8 0 15 -5 15 -10 0 -7 -6 -7 -20 0 -11
6 -20 7 -20 3 0 -4 -4 -2 -9 5 -6 11 -10 11 -18 0 -8 -9 -7 -17 3 -26 8 -7 14
-8 14 -2 0 5 5 10 10 10 6 0 10 -15 10 -32 0 -25 -3 -29 -10 -18 -9 14 -12 7
-9 -16 0 -4 -5 -11 -13 -15 -16 -11 -47 -12 -32 -1 6 4 3 14 -10 26 -16 16
-18 16 -13 3 3 -9 2 -19 -4 -23 -6 -3 -8 -12 -5 -19 6 -16 -9 -30 -41 -39 -19
-6 -22 -4 -16 11 6 17 6 17 -10 1 -9 -9 -17 -21 -17 -26 0 -12 -158 -80 -182
-79 -10 0 -18 4 -18 9 0 4 -9 8 -20 8 -11 0 -20 -6 -20 -12 0 -10 -2 -10 -8
-1 -6 10 -14 9 -36 -2 -28 -15 -51 -12 -41 5 3 4 -5 6 -17 2 -18 -4 -20 -2
-14 14 4 10 4 15 0 11 -4 -4 -13 -2 -21 4 -10 9 -13 8 -14 -2 0 -8 -4 -2 -9
12 -11 39 -2 74 23 84 12 6 22 18 22 27 0 28 21 43 39 29 20 -17 73 15 99 58
10 17 22 29 27 26 5 -3 11 -1 15 4 3 5 -1 13 -8 18 -39 24 -52 76 -23 95 8 5
8 8 0 8 -7 0 -14 9 -17 20 -3 11 -12 20 -21 20 -9 0 -33 9 -53 20 -21 11 -30
20 -20 20 18 0 21 8 9 27 -10 15 -94 12 -100 -4 -2 -7 4 -13 14 -13 15 0 16
-2 2 -17 -19 -22 -19 -53 -1 -53 17 0 16 -10 -2 -34 -8 -11 -15 -27 -14 -35 0
-10 2 -12 6 -4 3 9 10 9 28 -3 27 -18 23 -41 -8 -46 -12 -2 -21 -9 -19 -16 1
-7 4 -21 5 -32 2 -10 12 -29 23 -41 10 -12 13 -19 7 -15 -8 4 -13 2 -14 -6 0
-10 -2 -10 -6 0 -13 34 -53 -14 -53 -65 0 -18 -6 -23 -25 -23 -16 0 -25 6 -25
15 0 9 -9 15 -24 15 -17 0 -25 -7 -28 -25 -3 -13 0 -27 6 -30 6 -2 1 -2 -11 1
-17 4 -23 1 -23 -10 0 -9 5 -16 10 -16 6 0 10 -9 10 -20 0 -11 -4 -20 -8 -20
-11 0 -12 -39 -1 -45 5 -4 7 -11 4 -16 -4 -5 -2 -9 4 -9 5 0 8 -6 7 -13 -1 -6
-4 -12 -7 -12 -3 0 -14 -7 -23 -15 -16 -12 -19 -12 -27 3 -6 9 -21 17 -34 17
-18 0 -23 4 -18 15 3 9 2 15 -3 14 -5 -1 -17 1 -27 6 -10 4 -23 2 -31 -4 -8
-7 -18 -11 -22 -10 -19 4 -73 -14 -68 -22 3 -5 -6 -4 -20 2 -19 9 -25 18 -23
40 1 16 6 29 10 29 5 0 6 4 3 8 -3 5 4 14 14 22 10 8 17 17 15 21 -3 4 3 13
12 20 10 8 14 9 10 2 -10 -16 11 -27 27 -14 11 9 15 7 19 -10 3 -13 10 -18 17
-14 7 4 10 16 7 26 -3 10 1 24 9 30 19 15 30 4 15 -15 -7 -8 -8 -17 -3 -20 6
-3 12 1 16 9 7 20 26 19 26 -1 0 -19 24 -13 28 8 4 21 -15 68 -28 68 -13 0 -9
-32 5 -42 6 -4 2 -8 -8 -8 -23 0 -33 26 -17 45 10 12 10 18 0 30 -14 17 -5 35
18 35 16 1 16 1 0 11 -28 16 -21 28 16 27 24 -1 42 7 62 25 16 15 34 27 41 27
7 0 13 5 13 11 0 5 -4 7 -10 4 -5 -3 -18 -1 -27 5 -12 7 -13 10 -3 7 29 -8 48
11 48 48 0 27 -4 35 -18 35 -11 0 -21 4 -25 9 -9 16 15 24 30 11 8 -7 24 -10
34 -7 14 3 21 -2 25 -19 4 -13 11 -24 17 -24 6 0 7 5 3 12 -5 7 -2 9 8 6 18
-7 20 29 2 40 -7 4 -14 16 -17 27 -4 19 -5 19 -6 -1 0 -12 -9 -24 -20 -27 -27
-7 -33 2 -16 26 10 14 11 25 4 39 -13 24 0 48 13 24 16 -28 27 -17 24 23 -3
39 2 50 69 147 50 73 353 510 485 699 207 298 624 903 747 1085 31 47 61 90
65 95 15 17 214 306 487 703 144 210 264 382 267 382 2 0 10 -16 18 -35 8 -19
20 -35 25 -35 6 0 11 -9 11 -20 0 -11 5 -20 10 -20 6 0 10 5 10 11 0 5 5 7 10
4 6 -4 8 -11 5 -16 -3 -5 0 -6 8 -3 9 3 17 -3 20 -17 5 -19 8 -20 21 -9 13 10
16 10 16 -4 0 -9 5 -16 11 -16 5 0 7 -5 3 -11 -5 -8 3 -10 23 -7 22 3 34 -1
43 -15 6 -10 7 -16 1 -13 -5 4 -12 2 -16 -4 -5 -9 -1 -11 20 -10 3 1 13 -7 22
-15 9 -9 19 -12 22 -7 9 14 51 25 51 13 0 -6 6 -8 14 -5 8 3 24 1 35 -6 18 -9
21 -8 21 10 0 18 10 25 33 21 4 0 7 4 7 10 0 5 5 7 10 4 6 -3 10 3 10 13 0 11
7 22 15 26 8 3 15 15 15 27 0 12 3 20 6 17 3 -4 19 -2 35 2 20 6 29 5 30 -3 1
-7 2 -16 4 -22 1 -5 3 -15 3 -22 1 -6 11 -15 22 -18 14 -4 19 -12 16 -23 -7
-22 30 -83 55 -89 21 -6 25 -18 9 -28 -5 -3 -10 -14 -10 -23 1 -16 1 -16 11 1
5 9 17 17 25 17 9 0 12 -5 8 -11 -4 -7 0 -9 14 -5 14 5 27 1 41 -13 11 -11 28
-18 38 -17 10 2 21 -1 24 -6 8 -12 52 6 95 38 40 31 41 36 12 49 -26 12 -32
39 -12 56 8 6 14 18 14 25 0 8 5 14 11 14 5 0 7 5 4 11 -4 5 -12 8 -18 6 -17
-6 -47 11 -47 27 0 8 -6 19 -14 25 -12 10 -20 9 -40 -4 -27 -18 -29 -15 -25
22 0 4 -8 10 -19 14 -18 7 -20 17 -20 88 0 83 6 94 35 65 10 -9 26 -14 40 -11
18 3 23 1 18 -11 -9 -24 24 -41 58 -29 20 7 31 6 36 -1 3 -5 20 -12 36 -14 18
-2 29 -8 27 -16 -1 -9 7 -11 25 -9 19 3 36 -3 51 -16 12 -11 22 -16 22 -10 0
6 -7 14 -16 17 -8 3 -12 10 -9 16 3 5 -4 14 -17 19 -13 5 -30 16 -37 25 -7 9
-22 16 -32 16 -11 0 -25 14 -35 35 -9 20 -30 45 -46 57 -22 15 -26 23 -17 29
15 9 20 47 7 55 -4 3 -8 0 -8 -7 0 -9 -3 -9 -14 0 -11 9 -16 9 -22 0 -4 -7 -3
-9 3 -6 6 4 16 0 23 -8 10 -12 9 -15 -8 -15 -30 0 -46 33 -24 49 57 40 104 40
118 -1 8 -25 29 -22 42 6 10 22 9 23 -11 19 -21 -5 -21 -5 -3 9 19 15 19 16
-5 29 -13 7 -31 12 -39 11 -10 -1 -11 1 -2 4 6 3 12 12 12 20 0 8 7 14 16 14
9 0 12 5 8 13 -4 6 1 5 12 -5 15 -13 21 -14 31 -3 6 7 9 16 6 19 -4 3 2 6 11
6 12 0 16 -5 12 -15 -3 -8 2 -19 11 -23 10 -6 14 -16 10 -26 -4 -9 -2 -16 3
-16 6 0 10 6 10 13 0 7 3 8 8 2 18 -25 63 -5 61 27 0 10 -2 10 -6 0 -7 -18
-23 -4 -24 21 0 12 -3 16 -6 9 -4 -10 -8 -10 -19 -1 -12 10 -13 9 -7 -7 6 -16
5 -17 -9 -4 -14 13 -15 17 -1 32 14 15 13 17 -6 15 -12 -1 -21 -5 -21 -9 0 -4
-5 -8 -11 -8 -15 0 -4 58 15 79 9 10 23 18 32 18 15 0 15 -1 0 -12 -20 -15
-21 -25 0 -25 8 0 12 -5 9 -10 -4 -6 -11 -7 -17 -4 -6 4 -8 2 -5 -3 4 -6 17
-13 30 -15 20 -4 22 -1 20 31 -2 36 -2 36 6 6 l9 -30 1 27 c1 30 16 44 27 27
4 -7 3 -9 -3 -6 -6 4 -10 -11 -10 -36 0 -23 2 -32 4 -19 2 12 8 20 13 17 4 -3
13 2 19 9 8 9 8 16 2 20 -6 4 -8 13 -4 22 4 11 8 12 20 3 8 -7 13 -8 12 -3 -1
5 1 17 6 28 5 12 3 21 -5 26 -8 5 -14 17 -15 28 -1 14 3 18 18 14 14 -4 18 -1
13 7 -5 8 1 10 23 6 31 -5 47 7 35 26 -4 8 -9 7 -15 -2 -7 -11 -9 -10 -10 4
-5 66 0 87 22 87 11 0 18 4 15 9 -3 5 4 11 17 15 12 3 24 1 25 -4 2 -6 12 -10
23 -10 10 0 19 -5 19 -11 0 -6 6 -9 14 -6 10 4 13 -1 10 -16 -2 -12 -2 -16 2
-9 10 22 25 13 18 -13 -7 -27 -5 -28 20 -19 13 5 14 10 5 20 -6 7 -9 19 -6 26
3 8 6 6 6 -5 1 -10 6 -15 11 -12 16 10 -8 35 -26 28 -22 -8 -17 27 6 47 13 12
17 21 10 25 -6 3 -7 11 -4 17 4 7 2 8 -4 4 -7 -4 -12 -2 -12 4 0 20 -23 5 -26
-18 -3 -16 0 -20 12 -15 11 4 15 2 13 -6 -3 -7 -9 -13 -14 -13 -6 0 -18 -4
-27 -9 -14 -8 -16 -5 -8 19 14 48 28 80 38 86 6 3 22 -8 37 -26 24 -28 28 -30
37 -15 5 10 14 15 19 11 6 -3 8 5 5 22 -3 15 -2 32 1 37 4 6 7 25 8 43 0 18 8
40 16 50 12 16 12 17 -3 12 -26 -10 -29 3 -5 23 l22 18 -22 1 c-13 0 -23 4
-23 10 0 6 9 6 26 0 28 -11 54 1 54 24 0 6 -5 4 -10 -4 -6 -9 -10 -10 -10 -3
0 19 -34 20 -54 1 -11 -10 -27 -18 -35 -18 -9 0 -12 3 -6 8 6 4 10 16 10 27 0
17 -6 20 -37 18 -35 -2 -38 -1 -36 23 3 33 25 42 42 19 12 -17 13 -17 19 4 3
11 2 21 -2 21 -11 0 -7 42 6 65 11 19 12 19 32 1 23 -21 18 -44 -6 -24 -13 10
-15 9 -12 -7 3 -12 14 -21 27 -23 27 -4 75 24 67 39 -4 5 -1 8 7 7 7 -2 13 4
13 12 0 10 -8 14 -22 12 -16 -2 -23 2 -23 12 0 20 -16 21 -23 2 -3 -8 2 -16
14 -19 17 -5 18 -8 8 -31 -15 -32 -28 -34 -22 -3 3 17 -2 26 -21 37 -14 7 -26
17 -26 22 0 5 -5 6 -10 3 -6 -4 -8 -11 -5 -16 4 -5 1 -9 -4 -9 -6 0 -10 -3 -9
-7 2 -5 -4 -18 -13 -31 -16 -22 -17 -22 -22 -2 -3 13 0 20 9 20 16 0 18 9 4
30 -8 13 -10 12 -10 -2 0 -19 -15 -24 -24 -9 -3 5 1 14 9 21 8 7 15 20 14 29
0 10 -2 12 -6 3 -2 -6 -9 -10 -14 -6 -5 3 -9 0 -9 -7 0 -7 -3 -9 -6 -6 -4 4
-1 14 7 23 11 14 10 17 -4 25 -21 12 -22 38 -2 45 8 4 15 15 15 26 0 12 5 17
13 13 6 -4 5 -1 -4 7 -20 17 -44 86 -40 118 2 13 10 29 19 36 8 6 12 15 9 20
-3 5 2 10 11 10 9 1 25 5 35 9 13 5 16 4 11 -8 -3 -9 -12 -13 -19 -11 -18 7
-30 -15 -15 -29 10 -9 14 -9 17 1 3 6 9 10 13 7 5 -3 7 -12 4 -20 -3 -7 4 -18
15 -25 12 -6 21 -7 21 -1 0 5 -5 11 -11 13 -7 2 -4 10 7 18 14 12 16 12 9 1
-5 -9 -3 -18 6 -25 16 -13 18 -38 4 -48 -5 -4 -7 -9 -4 -13 10 -9 60 47 55 61
-3 7 0 14 6 16 7 3 8 10 4 17 -6 8 -11 9 -21 1 -9 -8 -16 -2 -28 22 -14 29
-14 33 1 44 16 12 16 15 0 41 -10 15 -22 27 -28 25 -7 -1 -9 2 -5 8 3 5 0 10
-7 10 -10 0 -9 3 1 9 12 8 12 12 2 25 -11 12 -10 21 3 47 22 44 20 60 -12 105
-16 22 -27 45 -24 53 3 10 -1 12 -17 8 -21 -5 -25 1 -22 36 1 9 -4 17 -13 17
-8 0 -17 6 -20 13 -3 6 -4 1 -1 -13 6 -36 -6 -49 -43 -48 -24 1 -32 5 -27 16
10 26 1119 1632 1127 1632 5 0 51 -28 103 -62z m1729 46 c3 -8 2 -12 -4 -9 -6
3 -10 10 -10 16 0 14 7 11 14 -7z m36 6 c8 -5 11 -10 5 -10 -5 0 -17 5 -25 10
-8 5 -10 10 -5 10 6 0 17 -5 25 -10z m51 -28 c-7 -2 -18 1 -23 6 -8 8 -4 9 13
5 13 -4 18 -8 10 -11z m-1057 -41 c21 -17 51 -36 67 -43 16 -7 29 -20 29 -28
0 -8 -9 -238 -20 -510 -11 -272 -19 -549 -19 -615 0 -139 -13 -317 -42 -576
-11 -101 -24 -220 -29 -264 -4 -44 -24 -181 -43 -305 -20 -124 -38 -261 -42
-305 -5 -67 -13 -134 -30 -245 -1 -8 -14 -16 -30 -18 -21 -3 -25 -6 -14 -13
10 -6 11 -9 1 -9 -7 0 -15 7 -18 15 -4 8 -17 15 -31 15 -20 0 -23 3 -14 13 12
15 5 27 -15 27 -8 0 -11 -6 -7 -16 5 -14 1 -15 -27 -9 -32 7 -32 6 -26 -20 6
-23 4 -26 -12 -21 -12 4 -24 0 -32 -9 -36 -44 -63 -37 -142 34 -28 25 -37 51
-17 51 5 0 7 -5 3 -12 -4 -7 -3 -8 4 -4 7 4 12 16 12 27 0 26 25 19 26 -7 3
-48 5 -53 24 -51 11 1 19 6 19 12 -4 32 4 36 16 8 16 -38 34 -44 28 -9 -4 21
-2 23 24 19 22 -4 25 -2 13 6 -12 8 -12 11 -1 11 7 0 11 6 7 15 -3 9 0 15 9
15 8 0 15 4 15 8 0 17 -13 21 -31 11 -14 -7 -17 -6 -13 5 3 8 14 16 25 19 10
3 19 10 19 16 0 6 -8 7 -17 4 -16 -6 -16 -5 -4 10 10 13 10 17 1 17 -6 0 -14
-9 -17 -21 -4 -14 -12 -19 -24 -16 -11 3 -19 1 -19 -4 0 -4 -7 -6 -16 -2 -11
4 -14 13 -9 30 5 21 4 23 -14 14 -11 -6 -27 -11 -36 -11 -14 0 -14 5 5 35 24
38 23 39 -14 25 -15 -5 -26 -6 -26 -1 0 5 -12 23 -26 40 -14 17 -23 35 -20 40
4 5 2 12 -3 15 -5 4 -11 -1 -13 -11 -3 -14 -8 -12 -33 10 -23 21 -27 29 -17
35 11 7 9 10 -7 15 -12 3 -21 1 -21 -5 0 -5 -6 -6 -12 -1 -7 4 -20 6 -30 5
-23 -4 -31 13 -12 29 12 10 20 10 34 1 18 -11 30 -7 30 10 0 5 -4 7 -9 4 -5
-3 -14 8 -20 24 -5 17 -15 30 -20 30 -6 0 -11 6 -11 14 0 7 -11 21 -25 30 -14
9 -25 23 -25 30 0 16 -27 29 -41 20 -5 -3 -7 -9 -4 -13 2 -5 -9 -11 -26 -15
-25 -5 -30 -10 -26 -25 5 -21 -25 -41 -31 -21 -2 6 -10 17 -18 25 -30 30 -46
118 -65 349 -15 187 -9 226 48 312 38 58 159 279 248 454 35 69 163 342 252
540 103 228 359 769 364 770 3 0 23 -13 43 -29z m1131 11 c22 -9 45 -23 51
-31 6 -8 18 -12 26 -9 8 4 21 2 29 -3 11 -7 11 -9 -3 -9 -22 0 -23 -20 -2 -46
12 -15 15 -16 10 -2 -8 27 17 40 47 25 l27 -14 -24 -12 c-16 -9 -22 -19 -19
-32 4 -13 0 -19 -11 -19 -15 0 -62 25 -76 40 -3 3 -11 6 -19 8 -25 5 -72 43
-66 53 4 5 -2 6 -11 2 -12 -4 -15 -3 -10 5 4 7 2 10 -6 7 -15 -6 -71 39 -62
48 12 12 79 5 119 -11z m-481 -360 c116 -180 233 -363 261 -407 29 -44 116
-181 195 -305 79 -124 169 -264 199 -312 83 -128 161 -250 299 -468 68 -107
137 -213 152 -235 15 -22 102 -159 195 -305 92 -146 193 -304 225 -352 l57
-86 -56 -59 c-32 -32 -91 -86 -132 -121 -40 -35 -94 -88 -119 -117 -25 -30
-49 -53 -53 -52 -7 2 -357 723 -399 822 -37 88 -102 224 -250 525 -128 258
-277 587 -312 685 -6 16 -71 163 -181 410 -8 17 -35 75 -61 130 -25 55 -70
154 -99 220 -29 66 -64 145 -78 175 -14 30 -35 80 -47 110 -48 129 -23 98 204
-258z m706 247 c0 -11 -4 -18 -10 -14 -5 3 -7 12 -3 20 7 21 13 19 13 -6z
m-363 -5 c-3 -3 -12 -4 -19 -1 -8 3 -5 6 6 6 11 1 17 -2 13 -5z m347 -23 c3
-5 -1 -11 -9 -14 -9 -4 -12 -1 -8 9 6 16 10 17 17 5z m-40 -28 c-5 -23 -4 -26
7 -15 7 6 24 12 36 12 20 0 22 -3 14 -18 -13 -24 -45 -25 -66 -1 -15 15 -15
21 -5 34 18 22 21 19 14 -12z m-970 -243 c9 -113 16 -237 16 -277 0 -154 110
-710 214 -1084 183 -655 469 -1295 752 -1682 50 -69 75 -116 109 -207 48 -128
65 -200 46 -200 -6 0 -13 0 -16 0 -3 0 -5 2 -5 5 0 3 -9 14 -20 25 -22 22 -40
19 -40 -6 0 -18 -24 -18 -42 -1 -7 8 -18 12 -23 10 -6 -1 -28 7 -50 20 -29 17
-40 29 -42 50 -1 15 3 27 8 27 6 0 9 6 6 13 -2 6 0 21 6 32 10 19 9 20 -11 2
-22 -20 -91 -26 -153 -14 -20 4 -74 34 -119 66 -69 49 -90 71 -123 128 -69
120 -168 325 -163 338 2 7 -2 16 -10 19 -8 3 -14 11 -14 18 0 8 -16 46 -35 87
-19 40 -35 83 -35 95 0 12 -5 27 -12 34 -16 16 -54 133 -50 154 2 9 9 16 15
14 7 -1 9 -1 6 1 -4 2 -5 13 -2 23 8 30 -12 24 -24 -7 -11 -28 -11 -28 -12 10
-1 20 -5 37 -10 37 -10 0 -29 46 -32 75 -2 34 1 45 12 45 8 0 8 -4 0 -14 -9
-11 -6 -12 14 -8 15 2 25 11 25 21 0 14 -2 14 -10 1 -8 -12 -10 -11 -10 7 0
30 -19 39 -35 17 -13 -18 -14 -17 -25 11 -20 50 -99 366 -129 517 -57 281 -93
562 -111 879 -10 165 -8 212 10 405 17 191 39 350 54 403 3 9 12 42 21 74 10
33 21 55 25 50 5 -4 15 -100 24 -213z m1192 145 c-3 -8 4 -21 17 -30 14 -10
17 -15 7 -15 -13 0 -13 -2 0 -10 12 -8 12 -10 -5 -10 -16 0 -17 -2 -5 -10 8
-5 12 -11 9 -14 -6 -6 -99 54 -99 64 0 17 32 40 57 40 18 0 24 -4 19 -15z
m342 -53 c7 -5 10 -16 7 -24 -5 -11 -1 -16 12 -15 10 1 17 -4 16 -10 -2 -8 8
-13 27 -13 17 0 33 -6 36 -14 3 -8 12 -17 20 -20 9 -3 12 -1 9 4 -3 6 0 10 7
10 9 0 9 3 -2 10 -8 5 -10 10 -4 10 6 0 14 -3 18 -7 3 -4 15 -8 26 -10 11 -1
66 -23 122 -47 101 -42 103 -44 104 -77 1 -18 -5 -40 -12 -47 -21 -20 -17 -31
11 -28 13 2 22 -1 19 -5 -3 -5 3 -9 13 -9 22 0 63 -27 63 -41 0 -15 -30 -10
-36 6 -4 10 -14 14 -28 10 -17 -5 -18 -4 -6 4 10 7 11 11 3 11 -7 0 -16 1 -20
3 -3 1 -8 -8 -9 -20 -3 -16 0 -21 11 -17 10 4 15 0 15 -15 0 -16 -6 -21 -25
-21 -16 0 -25 -6 -25 -15 0 -8 -5 -15 -12 -15 -6 0 -8 -3 -5 -6 4 -4 18 1 31
10 31 20 37 20 30 2 -3 -9 5 -20 23 -30 15 -8 22 -15 16 -16 -7 0 -13 -7 -13
-16 0 -8 -5 -12 -10 -9 -6 4 -16 2 -23 -4 -16 -13 -46 -8 -56 8 -7 10 -12 10
-28 0 -18 -11 -33 -4 -129 61 -192 129 -205 139 -201 166 4 30 13 39 20 19 4
-8 2 -15 -3 -15 -6 0 -10 -4 -10 -9 0 -5 9 -7 20 -4 16 4 18 8 9 19 -8 10 -5
19 17 37 l27 24 -24 -1 c-18 -1 -23 4 -21 17 2 10 -3 17 -13 17 -13 0 -15 6
-10 30 7 34 3 37 -20 14 -20 -20 -33 -11 -15 11 10 12 9 15 -6 16 -11 1 -24 1
-30 0 -27 -3 -21 28 7 39 16 7 29 16 29 21 0 11 11 11 28 1z m-1310 -408 c112
-223 259 -466 348 -576 12 -14 47 -87 78 -161 32 -74 118 -257 192 -407 74
-150 134 -274 134 -277 0 -2 -21 11 -47 28 -313 216 -714 990 -848 1638 -14
66 -25 123 -25 128 1 4 20 -41 44 -102 23 -60 79 -183 124 -271z m1222 329 c0
-16 2 -16 11 -3 8 12 9 11 6 -5 -2 -11 -9 -19 -15 -17 -17 3 -15 -18 4 -39 20
-22 8 -28 -33 -17 -25 6 -30 12 -26 29 3 11 12 23 20 26 11 4 10 8 -4 20 -10
8 -13 12 -6 9 6 -4 14 -2 18 4 10 16 25 12 25 -7z m-55 -30 c-8 -8 -20 -11
-25 -8 -16 10 8 35 25 28 12 -4 12 -7 0 -20z m125 -18 c0 -8 -4 -15 -10 -15
-5 0 -10 7 -10 15 0 8 5 15 10 15 6 0 10 -7 10 -15z m-2 -101 c1 -15 -2 -23
-8 -19 -6 4 -8 11 -5 16 4 5 1 9 -4 9 -6 0 -11 5 -11 10 0 23 26 8 28 -16z
m522 -14 c0 -5 -7 -10 -15 -10 -9 0 -14 -8 -12 -20 4 -22 17 -39 17 -21 0 7 5
9 11 5 8 -4 7 -9 -2 -14 -17 -11 -58 17 -56 40 1 10 5 16 9 14 4 -3 16 0 25 5
23 13 23 13 23 1z m-1946 -159 c-13 -13 -28 26 -31 81 l-3 63 20 -70 c10 -38
17 -72 14 -74z m1538 -99 c146 -107 157 -117 151 -141 -3 -14 -19 -38 -34 -52
-16 -14 -27 -28 -24 -31 7 -7 -60 -58 -75 -58 -6 0 -8 -4 -5 -10 3 -6 -1 -7
-9 -4 -9 3 -16 10 -16 16 0 5 -4 7 -9 4 -5 -3 -12 1 -15 10 -5 12 -1 14 15 9
15 -5 19 -4 15 4 -4 6 -12 11 -18 11 -6 0 -20 8 -30 17 -10 9 -26 18 -36 19
-9 1 -28 6 -41 10 -19 5 -22 4 -16 -6 5 -9 4 -11 -4 -6 -6 4 -9 12 -6 17 4 5
1 9 -4 9 -15 0 -14 37 2 44 6 4 2 4 -10 2 -22 -4 -22 -3 -7 26 14 27 14 31 0
47 -9 10 -16 23 -16 29 0 6 -9 16 -20 22 -16 9 -18 15 -10 29 7 14 6 20 -5 24
-13 6 -18 47 -5 47 4 0 19 -13 35 -30 37 -39 46 -38 33 5 -6 19 -15 32 -19 29
-5 -3 -6 2 -3 10 3 9 -3 20 -15 28 -12 7 -21 17 -21 21 0 10 21 -4 222 -151z
m770 124 c40 -18 88 -39 106 -46 17 -7 32 -17 32 -22 0 -5 3 -7 8 -4 11 7 104
-36 134 -63 31 -28 53 -74 44 -96 -3 -9 -2 -14 3 -11 9 6 21 -63 21 -120 0
-18 -5 -36 -10 -39 -6 -4 -8 -10 -5 -15 3 -5 1 -27 -5 -49 -8 -30 -15 -39 -26
-34 -9 3 -14 0 -12 -8 2 -9 -5 -13 -17 -12 -11 1 -23 -4 -27 -10 -6 -9 -8 -9
-8 1 0 6 -7 12 -15 12 -8 0 -15 -5 -15 -11 0 -5 -5 -7 -10 -4 -17 11 -38 -14
-32 -37 4 -17 2 -20 -11 -15 -23 9 -427 284 -451 308 -19 18 -19 19 -2 38 10
11 16 27 13 36 -4 8 -2 15 3 15 6 0 10 6 10 14 0 16 34 31 50 21 12 -7 53 19
43 28 -3 4 0 7 8 7 10 0 11 2 2 8 -8 5 -9 13 -3 22 8 12 10 12 15 -3 5 -12 11
-14 25 -7 9 5 20 7 23 3 4 -3 12 6 18 21 7 14 18 27 26 27 27 3 31 4 39 12 4
4 2 7 -6 7 -10 0 -10 4 1 17 9 10 9 14 2 10 -7 -5 -21 1 -33 13 -26 26 -25 26
62 -14z m-372 -6 c0 -5 -4 -10 -10 -10 -5 0 -10 5 -10 10 0 6 5 10 10 10 6 0
10 -4 10 -10z m-695 -40 c-3 -5 -10 -10 -16 -10 -5 0 -9 5 -9 10 0 6 7 10 16
10 8 0 12 -4 9 -10z m689 -5 c3 -8 1 -15 -4 -15 -6 0 -10 7 -10 15 0 8 2 15 4
15 2 0 6 -7 10 -15z m-739 -34 c-7 -13 -45 -21 -45 -10 0 5 7 9 15 9 8 0 15 5
15 11 0 5 5 7 10 4 6 -4 8 -10 5 -14z m28 -26 c-6 -17 -23 -20 -23 -5 0 6 5
10 11 10 5 0 7 5 3 12 -4 7 -3 8 4 4 6 -4 9 -13 5 -21z m-1158 -113 c19 -56
46 -130 59 -162 14 -33 23 -60 21 -60 -2 0 2 -12 10 -27 10 -18 11 -32 4 -45
-12 -22 -28 -23 -35 -3 -5 11 -10 12 -26 4 -11 -6 -21 -9 -23 -7 -1 2 -17 86
-34 188 -17 102 -34 199 -37 215 -12 64 25 1 61 -103z m1105 88 c-10 -6 -11
-10 -2 -10 6 0 12 -5 12 -11 0 -8 -5 -8 -15 1 -20 17 -19 30 3 30 14 0 15 -2
2 -10z m611 -179 c-9 -6 -10 -11 -2 -15 6 -4 8 -12 5 -18 -4 -6 -10 -5 -15 3
-14 22 -10 39 9 39 13 0 14 -2 3 -9z m-491 -51 c0 -5 -4 -10 -9 -10 -6 0 -13
5 -16 10 -3 6 1 10 9 10 9 0 16 -4 16 -10z m40 -10 c0 -5 -5 -10 -11 -10 -5 0
-7 5 -4 10 3 6 8 10 11 10 2 0 4 -4 4 -10z m-90 -10 c0 -5 -7 -10 -16 -10 -8
0 -12 5 -9 10 3 6 10 10 16 10 5 0 9 -4 9 -10z m190 -20 c0 -5 -7 -7 -15 -4
-8 4 -15 8 -15 10 0 2 7 4 15 4 8 0 15 -4 15 -10z m-365 -10 c-3 -6 4 -14 16
-18 12 -5 18 -11 13 -14 -17 -10 -54 10 -48 27 3 8 10 15 16 15 5 0 6 -5 3
-10z m80 0 c-3 -5 -14 -10 -23 -10 -15 0 -15 2 -2 10 20 13 33 13 25 0z m499
-5 c-7 -16 -24 -21 -24 -6 0 8 7 13 27 20 1 1 0 -6 -3 -14z m-239 -23 c0 -9 6
-16 13 -14 10 2 10 -2 2 -18 -8 -16 -8 -20 2 -18 7 2 12 -4 10 -12 -3 -12 -1
-12 9 -3 6 6 17 9 24 6 20 -7 65 26 65 48 0 11 5 19 11 19 5 0 7 -5 3 -11 -4
-8 1 -9 17 -4 21 7 22 6 10 -9 -7 -9 -20 -16 -27 -16 -8 0 -14 -4 -14 -9 0 -5
-7 -17 -16 -26 -13 -13 -14 -18 -4 -31 11 -12 10 -17 -6 -30 -16 -13 -16 -15
-2 -10 12 3 15 1 11 -10 -3 -7 -8 -14 -12 -14 -11 0 -5 -48 8 -64 9 -11 10
-16 2 -16 -18 0 -12 -17 8 -23 16 -4 19 0 19 24 -1 17 -7 30 -17 32 -14 4 -14
5 1 6 22 1 51 -28 44 -45 -3 -7 -1 -16 5 -19 5 -4 7 -11 4 -16 -4 -5 1 -9 10
-9 9 0 19 9 22 21 4 16 8 17 14 7 7 -10 9 -10 10 0 1 6 3 17 4 22 1 6 3 16 4
23 1 7 6 5 12 -6 5 -9 7 -22 4 -27 -3 -6 -1 -10 4 -10 6 0 11 6 11 14 0 8 3
21 6 30 4 11 0 16 -14 16 -27 0 -66 42 -68 74 0 14 2 23 6 21 8 -5 32 18 27
26 -1 2 8 -7 20 -21 12 -14 22 -35 23 -47 0 -17 4 -20 22 -15 14 3 19 2 14 -6
-4 -7 -2 -12 3 -12 6 0 11 -4 11 -10 0 -5 -7 -10 -16 -10 -13 0 -14 -3 -5 -14
9 -11 9 -16 0 -22 -8 -4 -9 -3 -5 4 4 7 2 12 -3 12 -6 0 -11 -11 -11 -24 0
-33 -10 -57 -21 -50 -5 3 -9 -4 -9 -16 0 -12 5 -18 10 -15 6 3 10 1 10 -5 0
-6 -7 -13 -15 -16 -9 -4 -13 -14 -11 -23 8 -25 -9 -45 -33 -38 -12 3 -23 1
-26 -4 -3 -4 -13 -5 -23 -2 -16 7 -15 5 1 -21 14 -21 16 -30 7 -41 -7 -8 -10
-20 -7 -27 4 -9 6 -7 6 3 1 9 8 20 17 23 11 4 8 -5 -11 -30 -20 -27 -24 -38
-15 -44 8 -5 8 -10 2 -14 -5 -3 -12 1 -16 9 -9 26 -29 17 -23 -10 2 -14 2 -24
0 -21 -3 2 -17 0 -32 -5 -21 -7 -30 -20 -40 -57 l-12 -47 -20 25 c-42 54 -179
248 -179 254 0 4 -9 16 -20 28 -25 27 -26 48 -1 48 14 0 17 6 13 25 -2 14 -9
25 -15 25 -6 0 -7 3 -4 6 4 4 15 1 24 -7 17 -13 17 -13 1 6 -14 17 -14 22 -2
33 8 7 12 17 9 23 -8 13 9 11 22 -2 7 -7 13 -2 18 18 5 15 8 31 7 34 -2 8 64
4 97 -7 16 -5 22 -4 17 4 -3 6 -1 14 5 18 9 5 10 -1 5 -19 -6 -24 -4 -27 20
-25 14 2 30 11 35 23 10 20 10 20 -6 0 -16 -20 -16 -19 -13 6 2 15 10 34 17
43 17 20 7 21 -13 1 -11 -11 -20 -12 -38 -5 -21 10 -22 10 -1 6 15 -3 20 0 16
10 -3 8 -9 14 -14 14 -5 0 -9 7 -9 15 0 9 -6 12 -16 8 -13 -5 -15 -1 -10 15 3
12 9 31 12 42 3 11 1 20 -4 20 -6 0 -9 8 -7 18 2 9 4 19 4 21 2 11 16 -12 16
-27z m84 -8 c3 -4 -2 -4 -12 -1 -13 5 -20 0 -27 -16 -8 -21 -9 -21 -9 5 -1 22
3 26 20 23 12 -3 24 -7 28 -11z m-1772 -26 c-3 -8 -6 -5 -6 6 -1 11 2 17 5 13
3 -3 4 -12 1 -19z m2029 -1 c1 -9 -4 -17 -12 -17 -8 0 -14 2 -14 4 0 2 -3 11
-6 19 -4 11 0 15 12 13 9 -2 18 -10 20 -19z m-676 -11 c0 -2 -11 -6 -25 -8
-19 -4 -23 -2 -15 7 5 6 6 15 2 20 -4 4 3 2 16 -4 12 -6 22 -13 22 -15z m513
-10 c-4 -6 1 -5 10 3 15 12 17 11 17 -13 0 -25 -11 -31 -46 -27 -7 1 -15 -6
-18 -15 -5 -13 -2 -15 13 -11 25 6 36 -19 13 -32 -10 -6 -12 -11 -4 -11 6 0
12 -5 12 -10 0 -6 -11 -3 -25 7 -21 15 -24 24 -20 48 3 17 7 38 8 47 1 13 5
14 14 6 10 -8 12 -7 8 4 -4 9 0 15 9 15 8 0 12 -5 9 -11z m82 4 c3 -5 1 -10
-4 -10 -6 0 -11 5 -11 10 0 6 2 10 4 10 3 0 8 -4 11 -10z m-445 -30 c0 -5 -2
-10 -4 -10 -3 0 -8 5 -11 10 -3 6 -1 10 4 10 6 0 11 -4 11 -10z m57 -22 c-3
-8 -6 -5 -6 6 -1 11 2 17 5 13 3 -3 4 -12 1 -19z m601 -13 c-3 -3 -9 2 -12 12
-6 14 -5 15 5 6 7 -7 10 -15 7 -18z m307 -40 c28 -24 34 -33 19 -29 -12 3 -26
-1 -33 -10 -8 -9 -20 -16 -27 -16 -8 0 -14 -7 -14 -15 0 -8 -4 -15 -10 -15 -5
0 -10 7 -10 16 0 8 -5 12 -10 9 -7 -4 -7 -13 0 -26 7 -13 7 -19 0 -19 -5 0
-10 -12 -10 -27 1 -27 1 -28 17 -8 13 16 15 17 10 3 -4 -12 -1 -18 8 -18 8 0
15 -5 15 -11 0 -5 -4 -7 -10 -4 -5 3 -10 1 -10 -4 0 -6 5 -11 10 -11 17 0 11
-18 -8 -24 -9 -3 -22 -16 -27 -28 -7 -16 -18 -22 -33 -21 -12 2 -22 -2 -22 -7
0 -12 49 -44 56 -37 8 7 33 -16 28 -25 -2 -4 0 -9 5 -12 5 -3 16 5 25 19 9 14
13 25 8 25 -5 0 -9 7 -9 14 0 8 5 14 11 13 6 -1 11 8 11 21 0 13 10 33 22 46
l23 24 -23 7 c-12 4 -29 7 -37 6 -11 -1 -11 1 3 9 13 9 15 15 7 31 -8 14 -7
19 2 20 10 0 10 2 1 6 -10 3 -10 8 1 19 22 22 29 17 22 -17 -5 -29 -4 -30 11
-18 15 12 16 12 10 -3 -3 -10 -2 -18 2 -18 5 0 11 7 15 15 10 28 46 -5 46 -42
0 -18 5 -33 10 -33 7 0 7 -6 0 -20 -6 -10 -10 -23 -9 -27 5 -30 -5 -51 -34
-67 -17 -11 -38 -18 -45 -17 -8 1 -23 -9 -35 -23 -23 -25 -87 -50 -73 -27 4 6
1 11 -8 11 -9 0 -16 -5 -16 -10 0 -6 -12 -15 -26 -20 -22 -9 -25 -14 -19 -40
5 -25 3 -30 -12 -30 -17 -1 -17 -1 0 -14 19 -14 24 -52 6 -40 -6 3 -15 1 -19
-6 -6 -9 -13 -9 -29 -1 -17 10 -20 9 -15 -4 4 -10 -4 -24 -22 -37 -29 -23 -58
-33 -48 -16 3 5 0 9 -7 7 -27 -3 -40 1 -34 11 3 6 15 10 26 10 11 0 29 5 40
10 16 9 17 14 6 33 -6 12 -16 25 -21 28 -12 9 -26 90 -14 83 5 -3 12 4 15 16
3 11 11 19 17 17 6 -3 16 1 21 7 13 14 15 46 4 46 -5 0 -9 -4 -9 -10 0 -5 -4
-10 -8 -10 -19 0 -7 30 12 31 15 0 9 6 -18 18 -26 11 -36 20 -28 25 7 4 12 2
12 -3 0 -6 7 -11 15 -11 8 0 15 6 15 14 0 7 6 19 14 25 10 9 15 8 20 -4 3 -8
12 -15 21 -15 8 0 15 -6 15 -14 0 -35 16 -21 17 15 2 28 -1 38 -10 33 -9 -5
-9 -4 0 6 8 9 9 19 2 32 -5 10 -7 24 -3 30 4 7 3 8 -4 4 -8 -5 -10 2 -6 24 4
20 3 30 -5 30 -7 0 -9 -5 -5 -12 4 -7 3 -9 -1 -5 -13 12 -15 36 -3 44 6 3 8 2
5 -3 -3 -5 10 -14 28 -20 19 -6 32 -7 30 -4 -3 4 4 10 15 13 47 12 34 75 -15
69 -17 -2 -25 0 -21 7 4 5 13 8 21 5 7 -3 18 4 25 15 6 12 8 21 4 21 -3 0 -1
7 6 15 11 13 15 13 39 0 14 -8 44 -30 66 -50z m-1099 10 c1 -8 -3 -15 -10 -15
-20 0 -27 12 -14 27 12 15 21 10 24 -12z m294 15 c9 -6 11 -10 3 -10 -7 0 -10
-7 -6 -17 4 -11 3 -14 -6 -9 -7 5 -10 14 -7 21 3 8 0 16 -7 19 -7 2 -7 5 -2 5
6 0 17 -4 25 -9z m354 -22 c-3 -4 4 -8 15 -8 12 0 21 -7 21 -16 0 -8 4 -13 9
-10 4 3 16 -3 26 -14 15 -16 15 -22 5 -35 -8 -10 -9 -15 -1 -15 6 0 11 -4 11
-10 0 -5 -6 -7 -13 -4 -8 3 -13 -4 -14 -16 -1 -12 5 -24 13 -27 8 -3 14 -10
14 -15 0 -6 -11 -3 -24 6 -24 15 -25 15 -21 -4 2 -12 -2 -20 -9 -20 -9 0 -12
9 -8 28 l5 27 -23 -23 c-16 -17 -19 -26 -11 -36 6 -7 8 -16 4 -20 -4 -4 -1
-11 6 -15 9 -6 10 -11 2 -15 -6 -4 -11 -2 -11 3 0 6 -12 11 -27 12 -16 0 -22
3 -15 6 6 2 9 9 6 14 -3 6 0 17 7 25 10 12 8 17 -7 29 -18 13 -18 14 -1 15 11
0 17 6 15 18 -2 13 3 16 25 14 15 -2 35 2 45 8 14 9 13 10 -10 6 -34 -8 -65
19 -47 40 9 11 8 20 -5 39 -18 28 -21 39 -6 30 6 -3 10 0 10 7 0 10 3 9 9 -2
6 -8 7 -18 5 -22z m136 -26 c0 -2 -7 1 -15 8 -13 11 -15 8 -15 -16 0 -22 -3
-25 -10 -14 -5 8 -9 29 -8 46 l1 32 24 -26 c12 -14 23 -27 23 -30z m65 48 c-3
-5 -1 -10 4 -10 6 0 11 4 11 10 0 5 7 7 15 4 22 -9 18 -31 -5 -37 -11 -3 -20
-1 -20 5 0 6 -7 8 -15 4 -8 -3 -15 0 -15 7 0 9 -2 9 -8 0 -4 -7 -13 -9 -21 -4
-10 6 -9 10 4 15 9 3 21 4 25 1 5 -3 11 -1 15 5 3 5 8 10 11 10 3 0 2 -4 -1
-10z m665 -9 c0 -13 -21 -19 -43 -13 -15 4 -16 7 -5 13 17 12 48 11 48 0z
m-2460 -50 c-19 -39 -19 -40 -1 -53 18 -13 18 -14 1 -35 l-18 -22 -6 32 c-17
81 -17 105 1 110 41 11 44 8 23 -32z m1133 -20 c-9 -13 -21 18 -16 39 7 25 7
25 13 -5 4 -16 5 -32 3 -34z m724 37 c-3 -8 -6 -5 -6 6 -1 11 2 17 5 13 3 -3
4 -12 1 -19z m-1823 -3 c-5 -11 1 -15 24 -15 28 0 34 -7 81 -99 31 -61 47
-102 41 -106 -6 -4 -8 -11 -5 -16 4 -5 -1 -9 -10 -9 -11 0 -15 -5 -11 -15 4
-10 -1 -15 -14 -15 -11 0 -20 5 -20 10 0 6 -6 10 -14 10 -8 0 -13 8 -12 18 2
9 -2 20 -8 24 -6 4 2 8 17 8 19 0 27 4 24 13 -2 6 -12 11 -22 9 -13 -3 -16 1
-12 12 4 9 2 16 -3 16 -5 0 -12 10 -15 21 -6 17 -9 19 -16 8 -7 -11 -9 -10 -9
4 0 9 5 17 10 17 7 0 7 6 0 20 -6 11 -17 20 -24 20 -17 0 -26 42 -14 64 11 20
19 21 12 1z m-454 -25 c-8 -5 -17 -7 -19 -4 -3 3 1 9 9 14 8 5 17 7 19 4 3 -3
-1 -9 -9 -14z m1910 6 c0 -3 -4 -8 -10 -11 -5 -3 -10 -1 -10 4 0 6 5 11 10 11
6 0 10 -2 10 -4z m-43 -28 c-3 -8 -6 -5 -6 6 -1 11 2 17 5 13 3 -3 4 -12 1
-19z m342 6 c6 4 11 1 11 -6 0 -9 3 -9 10 2 11 17 13 10 4 -14 -3 -9 -10 -16
-16 -16 -5 0 -7 4 -4 9 3 5 -3 11 -14 14 -11 3 -20 11 -20 19 0 11 2 10 9 -1
5 -7 14 -10 20 -7z m339 0 c17 -12 19 -18 10 -28 -23 -24 -69 7 -52 35 7 13
16 11 42 -7z m39 -60 c-4 -4 3 -15 15 -25 25 -23 29 -23 22 -5 -11 28 14 24
63 -9 28 -19 53 -41 57 -50 3 -10 2 -14 -5 -10 -5 4 -19 -3 -29 -15 -13 -15
-32 -22 -59 -23 -23 -1 -43 -8 -46 -14 -6 -17 -25 -16 -25 1 0 7 13 23 29 36
26 19 28 25 18 41 -7 11 -19 18 -29 16 -11 -3 -15 0 -11 9 3 8 1 14 -5 14 -6
0 -9 8 -7 18 5 23 4 22 12 22 3 0 3 -3 0 -6z m-2602 -63 c3 -5 1 -12 -5 -16
-5 -3 -10 1 -10 9 0 18 6 21 15 7z m2140 -1 c-3 -5 -11 -10 -16 -10 -6 0 -7 5
-4 10 3 6 11 10 16 10 6 0 7 -4 4 -10z m-171 -55 c3 -9 0 -15 -9 -15 -9 0 -12
6 -9 15 4 8 7 15 9 15 2 0 5 -7 9 -15z m818 -7 c-7 -7 -12 -8 -12 -2 0 14 12
26 19 19 2 -3 -1 -11 -7 -17z m-2778 6 c8 -3 13 -11 11 -17 -2 -7 -9 -33 -15
-59 -21 -81 -31 -53 -22 60 2 24 3 25 26 16z m2837 -20 c17 -8 29 -18 26 -21
-8 -8 -77 20 -71 29 7 11 10 10 45 -8z m-2359 -26 c-7 -7 -12 -8 -12 -2 0 14
12 26 19 19 2 -3 -1 -11 -7 -17z m1513 12 c3 -5 1 -10 -4 -10 -6 0 -11 5 -11
10 0 6 2 10 4 10 3 0 8 -4 11 -10z m-40 -46 c1 -11 8 -18 14 -16 8 1 7 -4 -1
-18 -16 -25 -43 -27 -34 -3 4 9 1 20 -6 24 -9 6 -9 11 0 22 7 7 10 16 8 19 -1
3 1 2 6 -2 5 -4 11 -16 13 -26z m-5 -73 c0 -10 -26 -9 -36 2 -4 4 2 7 14 7 12
0 22 -4 22 -9z m37 -13 c-3 -8 -6 -5 -6 6 -1 11 2 17 5 13 3 -3 4 -12 1 -19z
m1953 12 c0 -5 -2 -10 -4 -10 -3 0 -8 5 -11 10 -3 6 -1 10 4 10 6 0 11 -4 11
-10z m30 0 c0 -5 -4 -10 -10 -10 -5 0 -10 5 -10 10 0 6 5 10 10 10 6 0 10 -4
10 -10z m-5900 -26 c0 -8 -4 -12 -10 -9 -5 3 -10 10 -10 16 0 5 5 9 10 9 6 0
10 -7 10 -16z m3825 -3 c-3 -6 -15 -11 -26 -11 -12 0 -17 4 -14 11 4 6 13 8
21 5 8 -3 14 0 14 6 0 6 3 9 6 5 3 -3 3 -10 -1 -16z m96 -1 c12 0 19 -7 19
-20 0 -11 6 -20 14 -20 9 0 12 -7 9 -20 -3 -11 -1 -26 5 -33 8 -10 4 -20 -19
-41 -20 -19 -28 -34 -24 -47 4 -11 2 -20 -4 -20 -6 -1 -14 -2 -18 -3 -5 0 -17
-10 -28 -21 -20 -20 -20 -22 -3 -50 10 -17 18 -38 18 -48 0 -10 4 -16 10 -12
5 3 7 13 4 23 -5 14 -4 14 4 3 8 -12 16 -13 35 -4 22 10 24 9 23 -10 -2 -26
12 -49 25 -41 5 3 9 -2 9 -11 0 -9 -4 -13 -10 -10 -5 3 -10 -2 -10 -12 0 -10
-14 -25 -31 -33 -17 -9 -30 -20 -28 -25 2 -6 6 -9 9 -8 34 12 43 14 35 6 -15
-12 -12 -49 3 -45 8 1 11 -2 8 -7 -4 -5 -1 -11 6 -13 7 -3 2 -7 -10 -10 -15
-4 -22 -2 -22 8 0 8 -3 14 -8 14 -14 0 -114 139 -107 150 4 6 2 9 -4 8 -9 -3
-131 158 -131 173 0 4 10 9 23 13 13 3 28 19 36 38 21 52 21 58 -4 64 -26 6
-41 31 -19 31 8 0 14 -4 14 -9 0 -4 11 -8 25 -8 14 0 25 4 25 9 0 5 6 11 14
14 12 5 13 -1 9 -29 -3 -20 -1 -34 5 -34 10 0 26 29 24 43 -1 4 5 7 14 7 8 0
12 -4 9 -10 -3 -6 1 -7 9 -4 16 6 23 25 9 23 -25 -4 -43 3 -43 17 0 8 4 13 9
10 5 -3 15 1 22 10 8 10 15 12 17 5 2 -6 12 -11 23 -11z m1644 0 c3 -5 1 -10
-4 -10 -6 0 -11 5 -11 10 0 6 2 10 4 10 3 0 8 -4 11 -10z m-3581 -42 c10 -14
12 -27 6 -38 -5 -10 -6 -20 -3 -24 3 -3 1 -6 -5 -6 -6 0 -9 -11 -6 -24 4 -26
-9 -42 -27 -30 -8 4 -8 9 0 17 6 6 11 22 11 36 0 23 -1 24 -20 6 -11 -10 -17
-22 -14 -26 3 -5 0 -9 -6 -9 -6 0 -9 -4 -5 -9 6 -10 -33 -26 -42 -18 -3 3 -1
12 3 19 5 7 9 36 9 63 0 48 1 50 27 47 14 -2 29 2 33 7 10 17 22 13 39 -11z
m3596 2 c0 -5 -4 -10 -10 -10 -5 0 -10 5 -10 10 0 6 5 10 10 10 6 0 10 -4 10
-10z m-5662 -26 c2 -1 -1 -12 -8 -23 -11 -22 -40 -29 -40 -10 0 5 -6 7 -12 3
-7 -4 -5 2 5 13 9 11 17 25 17 33 0 10 3 10 18 -1 9 -7 18 -14 20 -15z m5755
-17 c3 -8 -1 -14 -8 -14 -7 0 -11 6 -8 14 3 7 6 13 8 13 2 0 5 -6 8 -13z m-40
-22 c-5 -15 -50 -32 -59 -23 -9 10 8 37 21 32 7 -3 16 0 20 5 9 16 25 3 18
-14z m-5863 -68 c0 -5 -5 -5 -10 -2 -6 3 -13 -1 -16 -10 -9 -22 -33 0 -27 24
4 16 8 17 29 7 13 -6 24 -15 24 -19z m80 23 c13 -9 13 -10 0 -10 -8 0 -22 5
-30 10 -13 9 -13 10 0 10 8 0 22 -5 30 -10z m2138 -70 c1 -16 -2 -30 -8 -30
-5 0 -13 0 -17 0 -5 0 -8 4 -8 9 0 5 -3 13 -7 17 -7 6 19 33 32 34 3 0 7 -13
8 -30z m3677 10 c-20 -22 -40 -26 -50 -10 -6 10 27 28 54 29 11 1 10 -4 -4
-19z m-101 -36 c4 -9 13 -14 21 -10 27 10 15 -11 -22 -40 -20 -15 -49 -28 -63
-29 -18 0 -26 -6 -28 -22 -3 -18 -10 -23 -33 -23 -16 0 -29 5 -29 13 0 8 -3 8
-9 -2 -5 -8 -7 -20 -4 -28 3 -7 1 -13 -5 -13 -6 0 -12 5 -14 11 -5 14 -48 -6
-48 -22 0 -6 4 -8 8 -5 4 2 9 -5 9 -17 2 -20 1 -20 -8 -4 -6 9 -15 17 -21 17
-7 0 -6 -5 2 -15 6 -8 10 -20 7 -27 -3 -7 -11 2 -20 22 -15 35 -14 55 4 44 5
-3 8 0 7 8 -2 7 3 12 11 10 12 -3 12 -1 0 14 -13 16 -12 16 7 6 16 -9 21 -8
21 3 0 8 -5 12 -10 8 -5 -3 -4 4 3 16 6 12 16 19 22 15 7 -5 9 1 4 19 -6 24
-3 27 31 36 132 34 149 36 157 15z m-3624 -4 c0 -5 -2 -10 -4 -10 -3 0 -8 5
-11 10 -3 6 -1 10 4 10 6 0 11 -4 11 -10z m97 -7 c4 -9 2 -18 -5 -21 -6 -2 -8
-10 -5 -18 3 -7 9 -11 14 -8 5 3 8 2 7 -3 -2 -4 2 -21 9 -38 6 -16 19 -66 28
-110 10 -44 27 -109 37 -143 19 -61 19 -64 1 -77 -16 -12 -16 -19 -6 -69 11
-51 10 -60 -8 -90 -15 -27 -24 -32 -44 -28 -14 2 -25 9 -26 16 -1 6 -2 19 -3
29 -1 19 -61 47 -84 39 -7 -2 -12 1 -12 7 0 6 -5 11 -11 11 -6 0 -18 8 -27 17
-16 16 -16 16 0 11 9 -4 18 -2 20 3 2 5 14 11 26 12 13 1 38 14 55 30 17 15
33 23 35 17 5 -15 24 -12 52 11 23 19 23 21 6 31 -17 9 -17 11 0 29 10 11 12
19 6 19 -7 0 -12 9 -12 20 0 11 -5 20 -11 20 -5 0 -7 -4 -4 -10 12 -20 -22 -9
-44 14 -24 25 -32 24 -104 -15 -16 -8 -16 -7 -5 11 7 11 15 20 19 20 3 0 5 16
5 35 -1 28 -5 35 -17 32 -12 -3 -15 1 -11 15 2 10 1 18 -4 17 -28 -5 -39 3
-41 31 -2 28 -1 29 14 14 15 -15 18 -15 29 0 6 9 16 16 20 15 18 -4 44 14 44
30 0 12 2 13 9 3 6 -11 10 -10 16 5 5 10 7 23 6 30 -1 6 3 14 9 18 8 5 7 11
-1 21 -9 10 -9 14 0 14 6 0 15 -8 18 -17z m-2280 -15 c-3 -8 -6 -5 -6 6 -1 11
2 17 5 13 3 -3 4 -12 1 -19z m2253 8 c0 -3 -4 -8 -10 -11 -5 -3 -10 -1 -10 4
0 6 5 11 10 11 6 0 10 -2 10 -4z m1900 -11 c0 -8 -2 -15 -4 -15 -2 0 -6 7 -10
15 -3 8 -1 15 4 15 6 0 10 -7 10 -15z m-4200 -49 c0 -7 -6 -13 -14 -13 -8 0
-11 8 -8 19 5 19 22 15 22 -6z m2240 15 c0 -11 -25 -21 -51 -21 -21 0 -26 16
-6 23 21 9 57 7 57 -2z m598 -36 c-13 -6 -27 -9 -33 -6 -5 3 -2 7 8 9 9 2 15
7 12 12 -3 4 4 6 16 3 20 -5 20 -6 -3 -18z m2557 7 c-12 -8 -13 -22 -3 -37 4
-6 2 -17 -4 -25 -8 -12 -9 -11 -4 3 4 13 0 20 -14 24 -22 6 -27 29 -7 36 19 8
43 8 32 -1z m-5371 -32 c-6 -6 -10 -2 -11 12 -2 16 1 18 10 9 7 -7 8 -14 1
-21z m66 -10 c0 -5 -5 -10 -11 -10 -5 0 -7 5 -4 10 3 6 8 10 11 10 2 0 4 -4 4
-10z m5280 -31 c0 -5 -4 -9 -10 -9 -5 0 -10 7 -10 16 0 8 5 12 10 9 6 -3 10
-10 10 -16z m-5240 -9 c0 -5 -2 -10 -4 -10 -3 0 -8 5 -11 10 -3 6 -1 10 4 10
6 0 11 -4 11 -10z m4160 -19 c0 -6 -4 -13 -10 -16 -5 -3 -10 1 -10 9 0 9 5 16
10 16 6 0 10 -4 10 -9z m666 -3 c-1 -7 -5 -19 -10 -26 -12 -19 1 -27 19 -12
13 11 18 11 28 0 9 -10 9 -11 -1 -6 -7 4 -15 1 -18 -8 -3 -9 -10 -13 -15 -10
-5 3 -9 -2 -9 -10 0 -9 -6 -16 -12 -16 -9 0 -9 -3 1 -9 8 -6 12 -19 9 -35 -3
-15 -1 -29 3 -32 5 -3 9 1 9 8 0 10 3 9 9 -2 6 -8 8 -17 5 -21 -2 -4 1 -11 7
-15 8 -4 9 -3 5 4 -4 7 -2 12 3 12 6 0 11 -4 11 -10 0 -5 7 -10 15 -10 21 0
75 59 75 82 0 18 1 18 16 4 18 -19 21 -19 30 -4 4 6 3 8 -3 5 -6 -4 -13 0 -16
8 -5 11 -1 12 18 5 13 -5 33 -7 45 -5 11 2 18 0 15 -6 -13 -19 43 4 58 25 5 8
10 7 16 -2 4 -8 11 -13 15 -13 19 3 26 0 26 -13 0 -7 9 -25 20 -39 11 -14 20
-30 20 -35 0 -23 -105 -69 -171 -75 -78 -7 -189 7 -201 25 -6 10 -10 10 -17
-2 -12 -18 -23 -8 -25 24 -1 23 -2 24 -23 11 -29 -19 -37 -19 -29 1 3 8 2 12
-4 9 -6 -3 -13 1 -16 9 -9 23 -27 20 -19 -3 3 -11 2 -22 -2 -24 -5 -3 -9 2 -9
11 -1 9 -4 26 -8 37 -5 11 -4 15 1 9 5 -7 16 -8 28 -3 11 4 14 8 7 8 -7 1 -10
5 -7 11 3 6 -1 7 -9 4 -11 -4 -16 0 -16 15 0 14 5 19 15 15 8 -4 15 -1 15 4 0
16 -18 24 -25 12 -4 -6 -11 -8 -16 -5 -5 3 -6 -1 -3 -10 5 -11 2 -14 -10 -9
-12 5 -13 10 -5 25 5 10 7 19 4 19 -4 0 -3 5 1 11 4 8 9 8 17 0 15 -15 40 -14
31 1 -4 7 -3 8 4 4 7 -4 12 -2 12 4 0 6 4 9 9 5 11 -6 61 15 61 27 0 4 -8 8
-17 9 -12 1 -10 4 7 9 14 4 26 8 27 9 1 1 0 -5 -1 -11z m582 1 c-2 -6 -6 -9
-8 -7 -7 4 -80 -71 -80 -83 0 -5 5 -9 10 -9 22 0 8 -26 -25 -47 -43 -29 -45
-29 -45 2 0 19 5 25 23 25 20 1 21 2 5 14 -20 15 -23 38 -8 66 8 15 6 21 -7
29 -15 9 -14 10 10 11 15 0 35 -9 44 -19 16 -19 39 -19 28 0 -10 15 1 24 30
27 15 1 25 -3 23 -9z m-5392 -73 c-3 -21 0 -37 7 -39 8 -3 9 -8 2 -15 -7 -7
-15 -8 -25 -2 -8 6 -10 10 -3 10 14 0 5 40 -11 41 -6 1 -18 1 -26 0 -10 0 -11
2 -3 5 7 3 15 5 18 4 3 0 13 6 21 15 22 22 25 19 20 -19z m5164 18 c0 -8 -5
-12 -10 -9 -6 4 -8 11 -5 16 9 14 15 11 15 -7z m228 -12 c2 -7 -3 -12 -12 -12
-9 0 -16 7 -16 16 0 17 22 14 28 -4z m-5498 -12 c0 -5 -4 -10 -10 -10 -5 0
-10 5 -10 10 0 6 5 10 10 10 6 0 10 -4 10 -10z m5455 -9 c3 -5 1 -12 -5 -16
-5 -3 -10 1 -10 9 0 18 6 21 15 7z m-5395 -21 c0 -5 -9 -6 -20 -3 -11 3 -17 9
-15 14 7 10 35 1 35 -11z m4335 10 c3 -5 1 -10 -4 -10 -6 0 -11 5 -11 10 0 6
2 10 4 10 3 0 8 -4 11 -10z m35 -25 c0 -8 -4 -15 -10 -15 -5 0 -10 7 -10 15 0
8 5 15 10 15 6 0 10 -7 10 -15z m256 -6 c3 -6 1 -16 -6 -22 -10 -9 -11 -9 -6
1 5 7 1 12 -9 12 -9 0 -13 5 -10 10 8 13 22 13 31 -1z m-4646 -11 c0 -9 3 -8
10 2 5 8 12 11 17 7 4 -5 1 -12 -7 -17 -20 -13 -30 -12 -30 1 0 6 -8 8 -19 4
-11 -3 -22 -1 -26 5 -4 6 6 10 24 10 18 0 31 -5 31 -12z m123 -53 c-3 -9 -8
-14 -10 -11 -3 3 -2 9 2 15 9 16 15 13 8 -4z m2060 -47 l29 -3 -35 -11 c-33
-10 -36 -9 -40 13 -3 16 -1 20 7 14 6 -5 24 -11 39 -13z m-86 -20 c-3 -8 -6
-5 -6 6 -1 11 2 17 5 13 3 -3 4 -12 1 -19z m-814 -13 c-3 -9 -8 -14 -10 -11
-3 3 -2 9 2 15 9 16 15 13 8 -4z m3053 -11 c-3 -9 -6 -20 -6 -25 0 -6 -5 -7
-10 -4 -8 5 -8 11 -1 19 6 7 8 16 4 19 -3 4 -1 7 6 7 8 0 11 -6 7 -16z m-4276
-15 c0 -5 -4 -9 -10 -9 -5 0 -10 7 -10 16 0 8 5 12 10 9 6 -3 10 -10 10 -16z
m1180 -14 c0 -5 -5 -3 -10 5 -5 8 -10 20 -10 25 0 6 5 3 10 -5 5 -8 10 -19 10
-25z m3157 10 c-4 -8 -10 -14 -14 -13 -4 1 -18 -4 -31 -11 -23 -12 -23 -12 -7
13 10 14 21 24 25 21 5 -3 12 0 15 6 10 15 19 3 12 -16z m-3209 -2 c-5 -24
-25 -27 -31 -3 -4 15 0 20 15 20 13 0 18 -6 16 -17z m82 -4 c0 -5 -4 -9 -8 -9
-5 0 -9 7 -9 15 0 8 4 12 9 9 4 -3 8 -9 8 -15z m774 -15 c4 -10 1 -14 -6 -12
-15 5 -23 28 -10 28 5 0 13 -7 16 -16z m-761 -18 c4 -10 0 -14 -13 -13 -14 1
-16 4 -8 14 13 16 15 16 21 -1z m3097 -26 c0 -38 -15 -54 -26 -27 -5 14 11 67
21 67 3 0 5 -18 5 -40z m-4963 8 c-3 -8 -6 -5 -6 6 -1 11 2 17 5 13 3 -3 4
-12 1 -19z m2698 -6 c-3 -3 -11 0 -18 7 -9 10 -8 11 6 5 10 -3 15 -9 12 -12z
m-1077 -55 c2 -9 -1 -17 -7 -17 -6 0 -11 6 -11 14 0 8 -6 17 -12 20 -7 3 -4 5
7 3 11 -1 21 -10 23 -20z m-1001 -9 c-3 -8 -6 -5 -6 6 -1 11 2 17 5 13 3 -3 4
-12 1 -19z m2164 -19 c15 -15 16 -24 7 -56 -11 -41 -36 -76 -49 -68 -4 3 -16
-8 -25 -24 -28 -47 -104 -69 -87 -25 3 8 -4 23 -16 33 -11 10 -17 22 -13 26 4
5 1 5 -6 1 -7 -4 -11 -10 -9 -14 2 -4 -6 -17 -18 -30 l-22 -22 4 27 c2 16 4
46 4 68 -1 54 11 72 33 50 16 -17 56 -13 56 6 0 5 6 9 14 9 7 0 16 9 19 21 3
12 10 18 16 14 6 -3 18 -2 28 3 20 12 40 5 64 -19z m-1187 6 c3 -8 1 -15 -4
-15 -6 0 -10 7 -10 15 0 8 2 15 4 15 2 0 6 -7 10 -15z m-1364 -19 c0 -3 -4 -8
-10 -11 -5 -3 -10 -1 -10 4 0 6 5 11 10 11 6 0 10 -2 10 -4z m2654 -21 c3 -8
1 -15 -3 -15 -5 0 -11 7 -15 15 -3 8 -1 15 3 15 5 0 11 -7 15 -15z m-1254 -5
c0 -13 -39 -29 -46 -19 -3 6 -12 8 -20 5 -7 -3 -16 -1 -19 4 -3 5 5 10 17 12
31 5 68 4 68 -2z m-970 -22 c0 -4 -4 -8 -9 -8 -6 0 -12 4 -15 8 -3 5 1 9 9 9
8 0 15 -4 15 -9z m130 2 c0 -5 -4 -10 -10 -10 -5 0 -10 5 -10 10 0 6 5 10 10
10 6 0 10 -4 10 -10z m740 -10 c0 -5 6 -10 14 -10 33 0 21 -15 -12 -16 -21 -1
-29 0 -19 3 14 4 16 8 6 19 -8 10 -8 14 0 14 6 0 11 -4 11 -10z m-858 -42 c-7
-7 -13 -21 -13 -32 -1 -17 -2 -18 -6 -3 -2 9 -10 17 -16 17 -7 1 -1 7 13 15
31 18 38 19 22 3z m1031 -23 c-3 -9 1 -15 11 -15 9 0 16 -4 16 -10 0 -5 -3 -9
-7 -9 -5 1 -10 0 -13 -1 -19 -8 -90 -5 -90 4 0 6 -4 4 -10 -4 -5 -9 -5 -19 0
-25 14 -16 -20 -15 -44 1 -18 12 -17 13 3 26 11 7 21 20 21 28 0 12 2 12 9 2
6 -10 10 -10 21 3 12 14 15 14 37 0 23 -16 25 -15 30 4 3 12 9 18 14 16 4 -3
6 -12 2 -20z m-1488 -25 c-3 -5 -11 -10 -16 -10 -6 0 -7 5 -4 10 3 6 11 10 16
10 6 0 7 -4 4 -10z m400 -10 c-3 -5 -15 -10 -26 -10 -10 0 -19 -5 -19 -11 0
-5 -5 -7 -11 -3 -8 4 -3 12 12 20 29 16 53 18 44 4z m-388 -21 c2 -16 -1 -19
-9 -11 -5 5 -7 15 -4 21 10 15 12 14 13 -10z m1469 -52 c-7 -10 -12 -13 -15
-6 -2 6 2 15 9 19 9 6 6 11 -10 20 -17 9 -20 14 -9 20 19 12 39 -29 25 -53z
m-1229 35 c1 -10 -4 -19 -10 -19 -7 0 -22 -3 -34 -7 -18 -6 -23 -4 -22 11 0
10 3 13 5 6 6 -14 35 -5 47 14 11 17 12 17 14 -5z m-190 -17 c15 -11 20 -23
17 -40 -4 -23 -3 -24 21 -13 16 7 25 19 25 34 0 32 32 21 49 -17 7 -16 17 -27
22 -23 5 3 9 -1 9 -8 0 -9 3 -9 10 2 8 13 12 13 27 -3 12 -12 14 -20 7 -25 -6
-4 -13 -15 -17 -25 -5 -15 -14 -10 -52 29 -45 47 -57 50 -60 16 -1 -23 -30
-64 -38 -55 -4 3 -7 -1 -7 -9 0 -9 -9 -18 -20 -21 -11 -3 -18 -1 -15 3 3 5 1
11 -5 15 -6 4 -5 16 4 34 14 25 13 29 -7 46 -14 12 -22 14 -25 7 -7 -22 -17
-12 -18 18 -1 16 2 27 7 24 4 -2 14 2 21 10 16 19 19 19 45 1z m253 -5 c0 -5
-5 -10 -11 -10 -5 0 -7 5 -4 10 3 6 8 10 11 10 2 0 4 -4 4 -10z m-24 -24 c9
-9 10 -17 4 -21 -5 -3 -10 -1 -10 4 0 6 -7 11 -16 11 -8 0 -12 5 -9 10 8 13
14 13 31 -4z m2053 -8 c-3 -20 13 -72 25 -80 6 -4 -4 -8 -22 -8 -29 0 -32 -2
-22 -19 7 -13 7 -22 0 -26 -26 -16 -25 99 1 129 17 19 20 20 18 4z m44 -5 c-7
-2 -19 -2 -25 0 -7 3 -2 5 12 5 14 0 19 -2 13 -5z m7 -47 c0 -2 -7 -7 -16 -10
-8 -3 -12 -2 -9 4 6 10 25 14 25 6z m-2746 -65 c3 -5 -1 -14 -9 -21 -13 -10
-15 -9 -15 9 0 21 14 28 24 12z m-54 -22 c0 -6 -4 -7 -10 -4 -5 3 -10 11 -10
16 0 6 5 7 10 4 6 -3 10 -11 10 -16z m-7 -23 c19 -11 27 -12 27 -3 0 7 9 1 20
-13 11 -14 20 -19 20 -12 0 6 8 12 17 12 14 0 13 -3 -5 -16 -13 -9 -29 -13
-37 -10 -8 3 -15 1 -15 -3 0 -5 5 -11 12 -13 7 -3 5 -7 -6 -11 -14 -5 -20 0
-29 23 -6 17 -17 28 -23 26 -7 -3 -14 4 -17 15 -6 23 -1 23 36 5z m512 4 c-3
-6 -17 -10 -31 -10 -33 0 -24 15 11 18 15 1 24 -2 20 -8z m-555 -20 c0 -5 -4
-10 -10 -10 -5 0 -10 5 -10 10 0 6 5 10 10 10 6 0 10 -4 10 -10z m550 -10 c0
-5 -2 -10 -4 -10 -3 0 -8 5 -11 10 -3 6 -1 10 4 10 6 0 11 -4 11 -10z m-70
-20 c0 -5 -5 -10 -11 -10 -5 0 -7 5 -4 10 3 6 8 10 11 10 2 0 4 -4 4 -10z
m-589 -53 c-10 -9 -11 -8 -5 6 3 10 9 15 12 12 3 -3 0 -11 -7 -18z m2499 2 c0
-5 5 -7 10 -4 15 9 12 -2 -5 -19 -23 -22 -48 -10 -32 15 13 21 27 25 27 8z
m-1935 -9 c3 -5 1 -10 -4 -10 -6 0 -11 5 -11 10 0 6 2 10 4 10 3 0 8 -4 11
-10z m69 -5 c-4 -8 -7 -15 -9 -15 -2 0 -5 7 -9 15 -3 9 0 15 9 15 9 0 12 -6 9
-15z m1936 -9 c0 -3 -4 -8 -10 -11 -5 -3 -10 -1 -10 4 0 6 5 11 10 11 6 0 10
-2 10 -4z m-44 -27 c3 -6 1 -16 -5 -22 -9 -9 -10 -7 -5 8 7 18 6 19 -9 6 -10
-8 -21 -11 -24 -7 -4 4 -1 11 7 16 20 13 27 12 36 -1z m-48 -38 c-12 -4 -29
20 -21 32 3 4 11 0 18 -10 9 -12 10 -19 3 -22z m3647 24 c96 -17 225 -54 225
-66 0 -4 -16 -3 -36 1 -67 15 -193 -15 -289 -71 -109 -62 -166 -127 -215 -247
-47 -113 -118 -252 -146 -285 -13 -16 -24 -35 -24 -42 0 -8 -5 -17 -11 -21 -9
-5 -10 2 -6 22 6 27 6 27 -5 7 -13 -27 -30 -31 -22 -5 5 16 5 16 -9 0 -29 -36
-36 3 -11 60 18 39 20 46 22 74 2 12 8 16 20 12 14 -5 14 -4 2 4 -12 9 -11 21
9 84 41 128 139 318 141 270 0 -7 5 -10 11 -6 8 5 8 9 -1 14 -10 6 -8 15 9 38
21 30 142 132 156 132 4 0 18 9 32 20 31 24 34 24 148 5z m-3580 -25 c3 -5 1
-10 -4 -10 -6 0 -11 5 -11 10 0 6 2 10 4 10 3 0 8 -4 11 -10z m-1975 -24 c0
-3 -4 -8 -10 -11 -5 -3 -10 -1 -10 4 0 6 5 11 10 11 6 0 10 -2 10 -4z m1834
-22 c3 -8 2 -12 -4 -9 -6 3 -10 10 -10 16 0 14 7 11 14 -7z m-2393 -207 c-10
-9 -11 -8 -5 6 3 10 9 15 12 12 3 -3 0 -11 -7 -18z m2301 -19 c-7 -7 -12 -8
-12 -2 0 14 12 26 19 19 2 -3 -1 -11 -7 -17z m-138 -109 c-3 -5 -11 -6 -17 -2
-7 4 -5 -1 3 -11 11 -14 15 -15 19 -5 19 59 99 36 115 -33 6 -25 3 -28 -34
-39 -27 -8 -36 -15 -28 -20 7 -4 10 -11 6 -14 -3 -3 -15 5 -26 19 -10 14 -22
23 -24 20 -3 -3 -9 7 -12 21 -5 19 -11 25 -22 21 -29 -11 -35 5 -13 35 11 16
25 27 30 23 5 -3 7 -10 3 -15z m-2024 -9 c0 -5 -5 -10 -11 -10 -5 0 -7 5 -4
10 3 6 8 10 11 10 2 0 4 -4 4 -10z m1900 -10 c0 -5 -4 -10 -10 -10 -5 0 -10 5
-10 10 0 6 5 10 10 10 6 0 10 -4 10 -10z m94 -81 c-3 -5 -10 -7 -15 -3 -5 3
-7 10 -3 15 3 5 10 7 15 3 5 -3 7 -10 3 -15z m-94 -19 c0 -5 -4 -10 -10 -10
-5 0 -10 5 -10 10 0 6 5 10 10 10 6 0 10 -4 10 -10z m-266 -448 c3 -5 -1 -9
-9 -9 -8 0 -12 4 -9 9 3 4 7 8 9 8 2 0 6 -4 9 -8z m-314 -176 c0 -8 -8 -13
-17 -11 -10 2 -20 4 -23 4 -7 2 23 21 33 21 4 0 7 -6 7 -14z m-42 -165 c9 -5
3 -8 -17 -9 -17 0 -31 4 -31 9 0 11 30 12 48 0z m-370 -291 c-7 -11 -15 -15
-17 -9 -2 6 3 15 10 20 20 12 21 11 7 -11z m-28 6 c0 -3 -4 -8 -10 -11 -5 -3
-10 -1 -10 4 0 6 5 11 10 11 6 0 10 -2 10 -4z m-1390 -282 c0 -8 -19 -13 -24
-6 -3 5 1 9 9 9 8 0 15 -2 15 -3z m127 -156 c-3 -8 -6 -5 -6 6 -1 11 2 17 5
13 3 -3 4 -12 1 -19z m56 -23 c-3 -9 -8 -14 -10 -11 -3 3 -2 9 2 15 9 16 15
13 8 -4z m-303 -249 c0 -3 -4 -8 -10 -11 -5 -3 -10 -1 -10 4 0 6 5 11 10 11 6
0 10 -2 10 -4z m420 -36 c0 -5 -5 -10 -11 -10 -5 0 -7 5 -4 10 3 6 8 10 11 10
2 0 4 -4 4 -10z m-733 -125 c-4 -8 -11 -15 -17 -15 -7 0 -7 6 0 21 13 23 26
19 17 -6z m553 -69 c6 -8 19 -13 28 -10 9 3 6 -1 -8 -10 -23 -13 -26 -13 -34
2 -5 9 -14 20 -20 24 -7 5 -5 8 5 8 9 0 22 -6 29 -14z m-170 -40 c0 -7 4 -6 9
3 6 9 14 10 27 3 11 -5 31 -9 47 -7 15 2 27 0 27 -3 -1 -10 -30 -47 -30 -38 0
4 -12 -7 -27 -25 -67 -79 -70 -81 -97 -64 -20 14 -23 23 -22 71 1 42 6 59 19
69 20 15 47 10 47 -9z m150 -4 c0 -10 -20 -39 -20 -29 0 15 -2 23 -12 40 -8
16 -7 17 11 7 12 -6 21 -14 21 -18z m-645 -51 c3 -5 1 -12 -5 -16 -5 -3 -10 1
-10 9 0 18 6 21 15 7z m757 -13 c-7 -7 -12 -8 -12 -2 0 6 3 14 7 17 3 4 9 5
12 2 2 -3 -1 -11 -7 -17z m-602 -14 c0 -2 -9 -4 -20 -4 -11 0 -20 4 -20 9 0 5
9 7 20 4 11 -3 20 -7 20 -9z m370 -99 c-15 -18 -41 -8 -32 13 3 9 13 22 21 29
13 10 17 8 19 -8 2 -11 -2 -26 -8 -34z m-290 -239 c0 -3 -4 -8 -10 -11 -5 -3
-10 -1 -10 4 0 6 5 11 10 11 6 0 10 -2 10 -4z m-710 -336 c0 -5 -4 -10 -10
-10 -5 0 -10 5 -10 10 0 6 5 10 10 10 6 0 10 -4 10 -10z m-70 -30 c0 -5 -7 -7
-15 -4 -8 4 -15 8 -15 10 0 2 7 4 15 4 8 0 15 -4 15 -10z m-945 -112 c-11 -6
-23 -16 -27 -22 -5 -8 -8 -7 -8 1 0 12 28 32 45 32 6 0 1 -5 -10 -11z m800
-89 c10 -15 -1 -23 -20 -15 -9 3 -13 10 -10 16 8 13 22 13 30 -1z m-1031 -15
c3 -8 2 -12 -4 -9 -6 3 -10 10 -10 16 0 14 7 11 14 -7z m243 2 c-2 -5 -13 -13
-24 -17 -17 -6 -21 -4 -20 10 1 13 8 18 24 17 13 0 22 -5 20 -10z m-199 -48
c-3 -7 -13 -15 -24 -17 -16 -3 -17 -1 -5 13 16 19 34 21 29 4z m-97 -21 c-10
-9 -11 -8 -5 6 3 10 9 15 12 12 3 -3 0 -11 -7 -18z m14 -26 c-3 -5 3 -11 12
-14 15 -3 15 -4 -1 -3 -20 1 -36 26 -16 26 6 0 9 -4 5 -9z m5 -42 c0 -5 -10
-9 -22 -8 -13 0 -17 3 -10 6 6 2 10 9 7 14 -4 5 1 6 9 3 9 -3 16 -10 16 -15z
m820 -60 c0 -5 -7 -9 -15 -9 -9 0 -15 9 -15 21 0 18 2 19 15 9 8 -7 15 -16 15
-21z m-695 -119 c-21 -23 -57 -28 -49 -6 5 14 23 22 53 25 11 1 10 -4 -4 -19z
m68 -76 c4 -4 21 -8 38 -9 17 -2 35 -7 41 -13 17 -17 -2 -33 -37 -30 -27 2
-35 7 -40 26 -5 19 -9 22 -18 13 -15 -15 -27 -14 -27 4 0 15 31 21 43 9z m-38
-32 c14 -10 12 -35 -3 -45 -19 -12 -25 -2 -13 21 8 15 8 22 -2 25 -6 3 -7 6
-2 6 6 0 15 -3 20 -7z m-55 -52 c0 -5 -2 -10 -4 -10 -3 0 -8 5 -11 10 -3 6 -1
10 4 10 6 0 11 -4 11 -10z"/>
<path d="M7601 9171 c-1 -8 -8 -11 -21 -8 -26 7 -26 -9 0 -23 16 -9 22 -8 26
4 3 9 4 21 1 28 -4 10 -6 10 -6 -1z"/>
<path d="M7478 8943 c7 -3 16 -2 19 1 4 3 -2 6 -13 5 -11 0 -14 -3 -6 -6z"/>
<path d="M8380 8413 c0 -5 5 -15 10 -23 8 -12 10 -11 10 8 0 12 -4 22 -10 22
-5 0 -10 -3 -10 -7z"/>
<path d="M8794 8061 c0 -15 4 -16 17 -8 19 12 16 27 -4 27 -7 0 -13 -8 -13
-19z"/>
<path d="M5570 6819 c0 -5 5 -7 10 -4 6 3 10 8 10 11 0 2 -4 4 -10 4 -5 0 -10
-5 -10 -11z"/>
<path d="M5485 6601 c-3 -5 -1 -12 5 -16 5 -3 10 1 10 9 0 18 -6 21 -15 7z"/>
<path d="M5521 6551 c-9 -6 -11 -16 -7 -27 4 -12 10 -14 14 -8 4 6 14 14 22
17 12 4 11 6 -3 6 -10 1 -15 6 -12 11 8 12 4 12 -14 1z"/>
<path d="M5590 6349 c0 -5 5 -7 10 -4 6 3 10 8 10 11 0 2 -4 4 -10 4 -5 0 -10
-5 -10 -11z"/>
<path d="M5660 6237 c0 -7 9 -13 19 -13 15 0 17 3 9 13 -6 7 -14 13 -19 13 -5
0 -9 -6 -9 -13z"/>
<path d="M5566 6211 c-9 -14 2 -51 15 -51 11 0 12 30 0 49 -6 9 -11 10 -15 2z"/>
<path d="M5607 6199 c7 -7 15 -10 18 -7 3 3 -2 9 -12 12 -14 6 -15 5 -6 -5z"/>
<path d="M5601 6164 c0 -11 3 -14 6 -6 3 7 2 16 -1 19 -3 4 -6 -2 -5 -13z"/>
<path d="M5658 6086 c-18 -14 -25 -32 -9 -21 6 3 6 -6 1 -25 -5 -19 -5 -32 2
-36 14 -9 30 10 29 37 0 24 -4 59 -5 59 -1 0 -9 -7 -18 -14z"/>
<path d="M6257 6093 c-14 -14 -6 -22 20 -19 34 4 43 26 11 26 -14 0 -28 -3
-31 -7z"/>
<path d="M6115 5920 c-3 -4 2 -16 11 -24 8 -9 11 -16 5 -16 -6 0 -11 -4 -11
-10 0 -5 -9 -19 -20 -30 -17 -17 -21 -18 -26 -5 -3 8 -10 12 -16 9 -5 -3 0
-13 11 -21 12 -8 21 -25 21 -41 0 -20 3 -23 12 -14 15 15 48 16 48 0 0 -6 7
-4 18 5 10 10 23 17 29 17 6 0 10 8 9 18 0 9 4 16 9 15 6 -1 11 7 11 18 0 12
-5 17 -13 14 -7 -3 -20 -8 -28 -11 -10 -4 -15 0 -15 10 0 9 -6 16 -12 17 -7 0
-4 4 7 9 11 5 14 9 8 9 -7 1 -22 10 -33 21 -10 10 -22 15 -25 10z m15 -100
c-24 -15 -36 -11 -14 4 10 8 21 12 24 10 2 -3 -2 -9 -10 -14z m35 -20 c-3 -5
-13 -10 -21 -10 -8 0 -12 5 -9 10 3 6 13 10 21 10 8 0 12 -4 9 -10z"/>
<path d="M6245 5860 c-3 -5 -1 -10 4 -10 6 0 11 5 11 10 0 6 -2 10 -4 10 -3 0
-8 -4 -11 -10z"/>
<path d="M6210 5769 c0 -5 5 -7 10 -4 6 3 10 8 10 11 0 2 -4 4 -10 4 -5 0 -10
-5 -10 -11z"/>
<path d="M6188 5749 c-7 -4 -24 -6 -38 -3 -16 4 -20 2 -13 -3 18 -13 5 -52
-17 -50 -10 1 -16 5 -14 9 3 5 10 5 16 2 6 -4 8 -2 4 4 -3 5 0 13 6 15 8 3 7
6 -4 6 -24 1 -38 -28 -27 -56 6 -17 5 -23 -5 -23 -8 0 -17 -7 -20 -16 -6 -15
-4 -15 10 -3 15 12 16 11 10 -9 -6 -17 -3 -24 16 -32 18 -7 13 -8 -22 -4 -43
4 -44 4 -26 -13 13 -13 20 -14 23 -6 3 8 12 9 28 3 12 -5 46 -7 74 -5 28 2 54
-1 57 -6 3 -6 12 -5 22 3 13 11 15 10 9 -4 -6 -18 6 -31 33 -35 17 -2 26 37
11 47 -4 3 -20 26 -35 53 -30 51 -37 55 -59 32 -8 -8 -17 -12 -20 -9 -9 9 5
44 18 44 7 0 16 7 19 16 3 8 10 12 16 9 5 -3 10 3 10 14 0 12 -6 22 -12 22 -7
1 -23 3 -35 4 -12 1 -27 -1 -35 -6z m22 -33 c0 -3 -4 -8 -10 -11 -5 -3 -10 -1
-10 4 0 6 5 11 10 11 6 0 10 -2 10 -4z"/>
<path d="M5630 5729 c0 -11 4 -18 9 -15 5 4 12 0 14 -6 4 -10 8 -10 16 1 7 11
5 18 -7 28 -24 18 -32 16 -32 -8z"/>
<path d="M6055 5701 c-3 -6 -15 -8 -27 -6 -16 3 -19 2 -11 -6 6 -6 9 -17 6
-24 -2 -7 5 -16 17 -20 26 -8 40 3 20 15 -12 8 -13 13 -2 30 7 11 10 20 8 20
-3 0 -7 -4 -11 -9z"/>
<path d="M5491 5684 c0 -11 3 -14 6 -6 3 7 2 16 -1 19 -3 4 -6 -2 -5 -13z"/>
<path d="M6070 5680 c0 -5 5 -10 11 -10 5 0 7 5 4 10 -3 6 -8 10 -11 10 -2 0
-4 -4 -4 -10z"/>
<path d="M6350 5680 c8 -5 20 -10 25 -10 6 0 3 5 -5 10 -8 5 -19 10 -25 10 -5
0 -3 -5 5 -10z"/>
<path d="M5384 5650 c1 -16 -2 -30 -7 -30 -4 0 -5 -4 -2 -10 13 -21 27 -10 21
16 -4 15 -2 32 5 40 9 11 8 14 -4 14 -10 0 -14 -9 -13 -30z"/>
<path d="M5461 5634 c-11 -14 -25 -23 -31 -19 -5 3 -10 2 -10 -4 0 -5 6 -12
13 -14 9 -4 9 -6 -1 -6 -10 -1 -10 -6 -2 -21 7 -14 7 -20 0 -20 -5 0 -10 -5
-10 -12 0 -6 7 -4 18 5 10 10 24 17 31 17 7 0 19 7 28 16 9 8 22 13 29 10 8
-3 14 1 14 8 0 8 6 17 13 19 9 4 9 6 0 6 -6 1 -15 -4 -19 -10 -4 -7 -12 1 -20
20 -16 38 -26 39 -53 5z"/>
<path d="M5318 5588 c9 -9 15 -9 24 0 9 9 7 12 -12 12 -19 0 -21 -3 -12 -12z"/>
<path d="M6344 5562 c3 -6 1 -14 -5 -17 -7 -5 -3 -14 10 -26 20 -19 21 -19 46
5 14 13 25 25 25 28 0 11 -30 3 -34 -9 -8 -19 -24 -16 -22 3 0 9 -5 19 -13 22
-8 3 -11 0 -7 -6z"/>
<path d="M6400 5520 c-13 -8 -13 -10 2 -10 9 0 20 5 23 10 8 13 -5 13 -25 0z"/>
<path d="M5245 5459 c6 -29 14 -36 25 -20 5 9 3 19 -5 28 -19 19 -24 16 -20
-8z"/>
<path d="M6230 5460 c0 -5 7 -7 15 -4 8 4 15 8 15 10 0 2 -7 4 -15 4 -8 0 -15
-4 -15 -10z"/>
<path d="M6527 5464 c-4 -4 -7 -14 -7 -23 0 -11 3 -12 11 -4 6 6 10 16 7 23
-2 6 -7 8 -11 4z"/>
<path d="M6207 5453 c-4 -3 -23 -6 -42 -5 -30 1 -35 -2 -35 -21 0 -18 2 -19
10 -7 8 12 10 12 10 -5 0 -15 2 -17 9 -6 7 11 11 10 19 -4 6 -12 17 -16 31
-12 11 3 24 1 27 -5 4 -6 10 -5 15 3 9 16 -7 39 -28 39 -9 0 -13 6 -9 15 6 16
3 19 -7 8z"/>
<path d="M6406 5435 c-3 -9 -6 -22 -5 -28 0 -7 5 -1 10 12 5 13 8 26 5 28 -2
2 -6 -3 -10 -12z"/>
<path d="M6265 5415 c4 -16 8 -35 10 -41 2 -6 -1 -17 -5 -24 -9 -14 4 -50 18
-50 4 0 6 20 4 45 -3 34 0 46 12 51 22 8 20 24 -2 24 -10 0 -24 6 -31 13 -10
10 -11 6 -6 -18z"/>
<path d="M5046 5412 c-10 -16 -1 -28 26 -35 20 -5 21 -4 7 6 -9 7 -18 19 -21
27 -3 10 -6 11 -12 2z"/>
<path d="M6433 5405 c-16 -18 -16 -22 0 -22 7 0 14 9 14 19 2 21 2 21 -14 3z"/>
<path d="M6335 5383 c7 -31 28 -49 34 -31 2 7 -1 14 -7 16 -7 2 -12 12 -12 23
0 10 -5 19 -11 19 -7 0 -9 -10 -4 -27z"/>
<path d="M6380 5380 c0 -5 5 -10 10 -10 6 0 10 5 10 10 0 6 -4 10 -10 10 -5 0
-10 -4 -10 -10z"/>
<path d="M6760 5381 c-8 -3 -15 -18 -15 -33 -1 -25 0 -26 16 -10 9 9 15 20 13
24 -2 3 1 8 8 10 7 3 8 7 3 10 -6 3 -17 3 -25 -1z"/>
<path d="M6219 5367 c-1 -4 -2 -10 -3 -14 -1 -5 -5 -13 -9 -20 -4 -6 -3 -14 2
-17 10 -6 25 43 16 52 -3 3 -6 2 -6 -1z"/>
<path d="M6116 5321 c-3 -5 3 -11 13 -14 14 -3 18 -1 14 9 -6 16 -19 18 -27 5z"/>
<path d="M6570 5320 c0 -5 5 -10 11 -10 5 0 7 5 4 10 -3 6 -8 10 -11 10 -2 0
-4 -4 -4 -10z"/>
<path d="M4975 5294 c0 -14 6 -24 14 -24 8 0 11 3 8 7 -4 3 -1 11 6 17 7 6 10
10 8 9 -2 -1 -11 2 -20 6 -13 7 -16 4 -16 -15z"/>
<path d="M5092 5292 c7 -9 13 -18 14 -20 1 -2 4 4 7 12 3 8 -2 16 -14 19 -17
5 -18 3 -7 -11z"/>
<path d="M6310 5301 c0 -5 12 -8 26 -8 18 0 22 2 13 8 -18 11 -39 11 -39 0z"/>
<path d="M6555 5280 c0 -15 3 -26 8 -23 4 2 7 13 7 23 0 10 -3 21 -7 23 -5 3
-8 -8 -8 -23z"/>
<path d="M6500 5285 c0 -8 8 -15 18 -14 10 0 12 3 4 6 -6 2 -10 9 -6 14 3 5 0
9 -5 9 -6 0 -11 -7 -11 -15z"/>
<path d="M6110 5271 c-8 -9 -12 -12 -8 -6 5 8 -2 10 -25 7 -17 -3 -26 -7 -19
-9 21 -8 13 -25 -8 -18 -13 4 -20 2 -20 -7 0 -10 -3 -9 -10 2 -8 13 -10 13
-10 -1 0 -18 27 -34 32 -19 2 4 17 10 35 13 24 4 30 2 26 -9 -3 -8 -14 -14
-25 -14 -14 0 -18 -5 -14 -15 4 -11 -2 -15 -20 -15 -14 0 -22 -4 -19 -10 3 -5
-1 -10 -9 -10 -10 0 -13 6 -9 18 6 15 5 15 -10 4 -8 -8 -13 -21 -10 -30 4 -14
3 -15 -5 -2 -6 8 -9 17 -6 21 2 4 -3 10 -12 13 -13 5 -14 9 -4 21 7 9 8 15 2
15 -15 0 -22 -25 -11 -41 13 -21 11 -29 -8 -29 -11 -1 -4 -7 15 -15 17 -8 32
-17 32 -20 0 -3 -5 -3 -12 1 -7 5 -8 3 -3 -6 6 -10 11 -10 20 3 15 21 19 21
41 0 13 -13 19 -14 22 -5 2 7 8 10 13 6 17 -10 50 7 47 24 -2 9 3 16 10 15 16
-4 16 39 0 55 -8 8 -9 12 -1 12 6 0 9 9 5 22 -4 17 -2 20 11 15 23 -8 22 10 0
22 -13 6 -22 4 -33 -8z m-10 -81 c0 -5 -4 -10 -10 -10 -5 0 -10 5 -10 10 0 6
5 10 10 10 6 0 10 -4 10 -10z m22 -12 c-7 -7 -12 -8 -12 -2 0 14 12 26 19 19
2 -3 -1 -11 -7 -17z m-52 -27 c0 -16 -5 -19 -27 -15 -35 7 -43 14 -15 14 12 0
22 5 22 10 0 6 5 10 10 10 6 0 10 -9 10 -19z"/>
<path d="M6226 5234 c-17 -12 -17 -14 -4 -14 9 0 20 5 23 11 11 17 2 18 -19 3z"/>
<path d="M6310 5240 c-9 -6 -10 -10 -3 -10 6 0 15 5 18 10 8 12 4 12 -15 0z"/>
<path d="M6750 5209 c0 -5 5 -7 10 -4 6 3 10 8 10 11 0 2 -4 4 -10 4 -5 0 -10
-5 -10 -11z"/>
<path d="M6180 5200 c0 -5 4 -10 9 -10 6 0 13 5 16 10 3 6 -1 10 -9 10 -9 0
-16 -4 -16 -10z"/>
<path d="M6260 5200 c20 -13 33 -13 25 0 -3 6 -14 10 -23 10 -15 0 -15 -2 -2
-10z"/>
<path d="M6545 5200 c-3 -5 -1 -10 4 -10 6 0 11 5 11 10 0 6 -2 10 -4 10 -3 0
-8 -4 -11 -10z"/>
<path d="M6195 5180 c-3 -5 -2 -10 4 -10 5 0 13 5 16 10 3 6 2 10 -4 10 -5 0
-13 -4 -16 -10z"/>
<path d="M6250 5139 c0 -5 5 -7 10 -4 6 3 10 8 10 11 0 2 -4 4 -10 4 -5 0 -10
-5 -10 -11z"/>
<path d="M6010 5106 c0 -2 7 -9 15 -16 13 -11 14 -10 9 4 -5 14 -24 23 -24 12z"/>
<path d="M6240 5100 c0 -5 5 -10 10 -10 6 0 10 5 10 10 0 6 -4 10 -10 10 -5 0
-10 -4 -10 -10z"/>
<path d="M6102 5088 c2 -5 8 -9 13 -9 5 0 11 4 13 9 1 5 -4 9 -13 9 -9 0 -14
-4 -13 -9z"/>
<path d="M6070 5043 c-13 -15 -12 -16 3 -10 9 3 17 3 17 -2 0 -19 -23 -71 -31
-71 -5 0 -9 -6 -9 -12 1 -7 11 -1 23 13 20 24 55 31 42 8 -4 -5 2 -6 11 -2 13
5 16 3 11 -10 -3 -9 -4 -17 -1 -17 2 0 9 12 14 26 6 14 15 22 21 19 6 -4 16 1
24 11 14 20 10 38 -6 29 -5 -4 -9 0 -9 8 0 10 -8 13 -25 9 -15 -2 -25 0 -25 7
0 17 -43 12 -60 -6z"/>
<path d="M6280 5024 c0 -5 9 -17 20 -27 11 -9 20 -13 20 -8 0 4 -9 16 -20 26
-11 10 -20 14 -20 9z"/>
<path d="M5226 4976 c10 -8 16 -18 12 -22 -4 -4 -3 -13 3 -21 9 -10 6 -17 -11
-31 -18 -15 -21 -24 -16 -50 16 -70 58 10 49 92 -5 41 -8 46 -31 46 -25 0 -25
-1 -6 -14z"/>
<path d="M6186 4953 c-6 -14 -5 -15 5 -6 7 7 10 15 7 18 -3 3 -9 -2 -12 -12z"/>
<path d="M6060 4911 c0 -17 18 -21 24 -6 3 9 0 15 -9 15 -8 0 -15 -4 -15 -9z"/>
<path d="M5860 4780 c-8 -5 -11 -12 -8 -16 4 -3 14 1 23 10 18 17 9 21 -15 6z"/>
<path d="M5177 4773 c-4 -3 -7 -11 -7 -17 0 -6 5 -5 12 2 6 6 9 14 7 17 -3 3
-9 2 -12 -2z"/>
<path d="M5067 4709 c6 -6 9 -18 6 -25 -4 -10 0 -12 10 -8 13 5 14 9 4 25 -6
10 -16 19 -21 19 -6 0 -5 -5 1 -11z"/>
<path d="M6266 4665 c-3 -9 0 -15 9 -15 9 0 12 6 9 15 -4 8 -7 15 -9 15 -2 0
-5 -7 -9 -15z"/>
<path d="M5986 4521 c-4 -7 -5 -15 -2 -18 9 -9 19 4 14 18 -4 11 -6 11 -12 0z"/>
<path d="M4923 4368 c-29 -14 -29 -23 -1 -25 12 -1 31 7 41 17 17 19 17 20 0
19 -10 0 -28 -5 -40 -11z"/>
<path d="M4840 4294 c0 -8 5 -12 10 -9 6 3 10 10 10 16 0 5 -4 9 -10 9 -5 0
-10 -7 -10 -16z"/>
<path d="M5760 4265 c7 -8 16 -12 21 -9 13 8 1 24 -18 24 -13 0 -13 -3 -3 -15z"/>
<path d="M5780 4236 c0 -2 8 -10 18 -17 15 -13 16 -12 3 4 -13 16 -21 21 -21
13z"/>
<path d="M5127 4199 c7 -7 9 -24 6 -39 -6 -34 13 -49 32 -24 10 14 17 16 25 7
9 -8 7 -13 -9 -18 -27 -8 -27 -25 0 -59 23 -29 17 -55 -9 -34 -13 11 -15 10
-9 -4 3 -10 2 -18 -4 -18 -5 0 -12 7 -16 16 -6 15 -7 15 -19 0 -11 -16 -13
-16 -23 1 -11 16 -11 -1 -1 -64 0 -2 6 -3 14 -3 9 0 14 -9 13 -20 -1 -11 -5
-20 -9 -20 -8 0 -33 42 -30 51 3 14 -38 16 -49 3 -9 -11 -4 -17 25 -30 19 -10
33 -21 30 -26 -5 -7 11 -12 19 -5 2 1 10 -3 18 -9 16 -12 57 -29 47 -18 -8 7
44 54 60 54 6 0 15 -8 21 -17 5 -10 22 -18 38 -19 15 -1 28 -3 28 -4 0 -1 8
-3 17 -5 9 -2 19 3 22 11 4 11 -1 13 -19 8 -14 -3 -25 -3 -25 1 0 9 27 35 32
30 7 -7 1 53 -7 65 -4 6 -13 9 -20 6 -14 -5 -39 17 -29 27 3 3 -4 8 -16 12
-17 5 -21 13 -17 31 3 16 0 24 -9 24 -8 0 -14 7 -14 15 0 8 -6 15 -13 15 -8 0
-20 11 -27 25 -7 14 -21 25 -31 25 -10 0 -21 5 -24 10 -3 6 -11 10 -18 10 -8
0 -8 -3 0 -11z m73 -113 c0 -3 -4 -8 -10 -11 -5 -3 -10 -1 -10 4 0 6 5 11 10
11 6 0 10 -2 10 -4z"/>
<path d="M4998 4099 c-10 -5 -18 -17 -18 -25 0 -23 31 -13 41 14 9 24 3 27
-23 11z"/>
<path d="M5031 4056 c-30 -16 -56 -88 -42 -114 10 -16 10 -16 11 1 0 9 4 17
10 17 5 0 6 7 3 17 -4 11 -3 14 5 9 7 -4 12 -1 12 9 0 9 7 27 16 41 21 30 16
36 -15 20z"/>
<path d="M3980 3441 c-15 -4 -20 -10 -13 -14 15 -10 -7 -57 -27 -57 -8 0 -36
-11 -62 -24 -36 -17 -48 -20 -48 -10 0 8 -7 14 -15 14 -13 0 -17 -6 -14 -26 0
-3 -7 -11 -17 -18 -10 -8 -14 -18 -10 -25 4 -6 3 -18 -4 -26 -8 -9 -8 -15 0
-20 6 -3 8 -11 5 -16 -4 -5 -2 -9 4 -9 5 0 11 6 14 13 3 9 7 9 20 -1 11 -10
21 -11 35 -3 15 8 21 7 26 -4 3 -9 -3 -19 -16 -26 -17 -9 -24 -8 -34 6 -15 20
-54 12 -54 -11 0 -17 16 -19 23 -1 4 9 6 9 6 -1 1 -14 25 -42 35 -42 3 0 6 7
6 17 0 9 3 13 7 10 3 -4 17 0 31 9 13 8 29 14 35 11 7 -2 21 -1 32 4 16 6 16
8 3 8 -16 1 -19 23 -5 37 3 4 2 15 -4 25 -7 15 -7 19 3 17 8 -2 12 7 11 25 -1
21 3 27 17 27 31 0 58 37 54 73 -1 18 -3 35 -3 40 -1 8 -6 8 -41 -2z m-67
-214 c12 -13 20 -37 13 -37 -8 0 -36 31 -36 41 0 13 9 11 23 -4z"/>
<path d="M3880 3425 c-6 -8 -10 -20 -7 -27 4 -8 6 -7 6 5 1 9 5 17 10 17 16 0
24 -21 12 -33 -14 -14 -14 -30 0 -22 19 12 27 49 13 62 -16 16 -19 16 -34 -2z"/>
<path d="M3374 3252 c-10 -17 -23 -28 -31 -25 -10 4 -12 -3 -7 -28 9 -50 12
-59 24 -59 7 0 9 8 5 19 -3 12 0 23 8 28 7 4 17 17 21 28 5 15 9 16 15 6 6 -8
11 -9 15 -3 10 16 -13 25 -30 11 -22 -18 -30 -2 -9 21 10 11 16 23 13 26 -4 3
-14 -8 -24 -24z"/>
<path d="M3273 3203 c4 -3 3 -11 -3 -17 -6 -8 -1 -12 16 -14 27 -2 34 22 8 32
-20 8 -29 8 -21 -1z"/>
<path d="M3590 3200 c-8 -5 -12 -12 -9 -15 4 -3 12 1 19 10 14 17 11 19 -10 5z"/>
<path d="M3436 3175 c4 -8 10 -15 15 -15 4 0 6 7 3 15 -4 8 -10 15 -15 15 -4
0 -6 -7 -3 -15z"/>
<path d="M3478 3183 c6 -2 18 -2 25 0 6 3 1 5 -13 5 -14 0 -19 -2 -12 -5z"/>
<path d="M3411 3158 c-1 -10 -7 -18 -15 -18 -7 0 -19 -7 -26 -15 -7 -8 -15
-13 -19 -11 -3 2 -12 -2 -19 -10 -19 -21 2 -17 30 6 14 10 28 17 30 14 9 -8
30 25 25 38 -4 8 -6 7 -6 -4z"/>
<path d="M3587 3150 c-3 -11 -1 -20 4 -20 5 0 9 9 9 20 0 11 -2 20 -4 20 -2 0
-6 -9 -9 -20z"/>
<path d="M3300 3143 c1 -18 18 -35 24 -24 4 6 2 11 -4 11 -6 0 -8 5 -5 10 3 6
1 10 -4 10 -6 0 -11 -3 -11 -7z"/>
<path d="M4725 3140 c4 -6 11 -8 16 -5 14 9 11 15 -7 15 -8 0 -12 -5 -9 -10z"/>
<path d="M3855 3110 c-3 -5 -1 -10 4 -10 6 0 11 5 11 10 0 6 -2 10 -4 10 -3 0
-8 -4 -11 -10z"/>
<path d="M3872 3080 c-10 -16 -9 -18 8 -17 22 1 24 6 12 24 -6 9 -11 7 -20 -7z"/>
<path d="M4443 3074 c0 -16 13 -19 21 -5 3 5 0 11 -7 14 -8 3 -14 -1 -14 -9z"/>
<path d="M3175 3070 c-3 -6 1 -7 9 -4 18 7 21 14 7 14 -6 0 -13 -4 -16 -10z"/>
<path d="M3455 3070 c-3 -5 -1 -10 4 -10 6 0 11 5 11 10 0 6 -2 10 -4 10 -3 0
-8 -4 -11 -10z"/>
<path d="M3175 3009 c-4 -6 -5 -12 -2 -15 2 -3 7 2 10 11 7 17 1 20 -8 4z"/>
<path d="M3188 2928 c-5 -34 2 -35 30 -5 28 30 28 35 -2 33 -19 -1 -25 -8 -28
-28z"/>
<path d="M4457 2943 c-10 -9 -9 -33 1 -33 4 0 8 9 9 20 2 21 0 24 -10 13z"/>
<path d="M3865 2910 c-18 -28 25 -40 46 -12 7 9 10 14 5 10 -5 -4 -17 -3 -27
2 -12 7 -20 7 -24 0z"/>
<path d="M3711 2547 c-1 -10 -5 -16 -10 -12 -5 3 -12 1 -15 -4 -3 -5 8 -14 26
-20 41 -15 44 -14 26 7 -9 9 -18 24 -21 32 -4 12 -6 11 -6 -3z"/>
<path d="M2761 2421 c-7 -12 -7 -22 -2 -26 5 -3 13 4 16 16 9 28 -1 36 -14 10z"/>
<path d="M3485 2360 c-3 -5 -1 -10 4 -10 6 0 11 5 11 10 0 6 -2 10 -4 10 -3 0
-8 -4 -11 -10z"/>
<path d="M3005 2350 c-3 -5 1 -10 10 -10 9 0 13 5 10 10 -3 6 -8 10 -10 10 -2
0 -7 -4 -10 -10z"/>
<path d="M3450 2340 c0 -5 5 -10 10 -10 6 0 10 5 10 10 0 6 -4 10 -10 10 -5 0
-10 -4 -10 -10z"/>
<path d="M3055 2329 c-10 -15 3 -25 16 -12 7 7 7 13 1 17 -6 3 -14 1 -17 -5z"/>
<path d="M3146 2305 c-3 -8 -12 -15 -20 -15 -16 0 -29 -27 -16 -35 10 -6 60
40 60 55 0 16 -17 12 -24 -5z"/>
<path d="M2625 2300 c3 -5 8 -10 11 -10 2 0 4 5 4 10 0 6 -5 10 -11 10 -5 0
-7 -4 -4 -10z"/>
<path d="M3540 2229 c0 -5 5 -7 10 -4 6 3 10 8 10 11 0 2 -4 4 -10 4 -5 0 -10
-5 -10 -11z"/>
<path d="M2889 2043 c-1 -4 -1 -11 0 -15 0 -5 -3 -8 -9 -8 -5 0 -10 -4 -10
-10 0 -18 22 -10 27 10 5 17 8 18 21 8 13 -11 14 -10 10 2 -5 16 -37 27 -39
13z"/>
<path d="M3151 2002 c0 -13 -5 -20 -11 -17 -5 3 -10 2 -10 -4 0 -5 5 -13 10
-16 13 -8 23 18 17 42 -4 14 -5 13 -6 -5z"/>
<path d="M2820 1972 c0 -10 36 -9 46 1 4 4 -5 7 -19 7 -15 0 -27 -4 -27 -8z"/>
<path d="M2895 1930 c3 -5 8 -10 11 -10 2 0 4 5 4 10 0 6 -5 10 -11 10 -5 0
-7 -4 -4 -10z"/>
<path d="M3051 1924 c0 -11 3 -14 6 -6 3 7 2 16 -1 19 -3 4 -6 -2 -5 -13z"/>
<path d="M2780 1900 c0 -5 5 -10 11 -10 5 0 7 5 4 10 -3 6 -8 10 -11 10 -2 0
-4 -4 -4 -10z"/>
<path d="M1885 1780 c-3 -5 -1 -10 4 -10 6 0 11 5 11 10 0 6 -2 10 -4 10 -3 0
-8 -4 -11 -10z"/>
<path d="M2520 1736 c0 -8 5 -18 10 -21 6 -3 10 3 10 14 0 12 -4 21 -10 21 -5
0 -10 -6 -10 -14z"/>
<path d="M1750 1630 c0 -5 7 -7 15 -4 8 4 15 8 15 10 0 2 -7 4 -15 4 -8 0 -15
-4 -15 -10z"/>
<path d="M1772 1540 c1 -33 16 -50 28 -30 13 20 6 55 -12 58 -13 2 -16 -4 -16
-28z"/>
<path d="M6856 6122 c-8 -13 11 -35 23 -28 16 10 14 36 -3 36 -8 0 -17 -4 -20
-8z"/>
<path d="M6837 6049 c7 -7 15 -10 18 -7 3 3 -2 9 -12 12 -14 6 -15 5 -6 -5z"/>
<path d="M7125 5950 c-3 -5 -1 -10 4 -10 6 0 11 5 11 10 0 6 -2 10 -4 10 -3 0
-8 -4 -11 -10z"/>
<path d="M7056 5925 c-11 -8 -15 -15 -10 -15 6 0 19 7 30 15 10 8 15 14 9 14
-5 0 -19 -6 -29 -14z"/>
<path d="M7145 5920 c3 -5 11 -10 16 -10 6 0 7 5 4 10 -3 6 -11 10 -16 10 -6
0 -7 -4 -4 -10z"/>
<path d="M7077 5902 c-12 -2 -16 -9 -13 -19 3 -8 6 -19 6 -24 0 -16 25 -10 36
9 14 21 -2 39 -29 34z"/>
<path d="M7080 5750 c0 -5 5 -10 10 -10 6 0 10 5 10 10 0 6 -4 10 -10 10 -5 0
-10 -4 -10 -10z"/>
<path d="M7020 5695 c0 -9 6 -12 15 -9 8 4 15 10 15 15 0 5 -7 9 -15 9 -8 0
-15 -7 -15 -15z"/>
<path d="M8465 8600 c-3 -5 -2 -10 4 -10 5 0 13 5 16 10 3 6 2 10 -4 10 -5 0
-13 -4 -16 -10z"/>
<path d="M8640 8526 c0 -2 7 -7 16 -10 8 -3 12 -2 9 4 -6 10 -25 14 -25 6z"/>
<path d="M8930 6690 c0 -13 7 -20 20 -20 18 0 19 2 8 20 -7 11 -16 20 -20 20
-5 0 -8 -9 -8 -20z"/>
<path d="M8926 6625 c4 -8 8 -15 10 -15 2 0 4 7 4 15 0 8 -4 15 -10 15 -5 0
-7 -7 -4 -15z"/>
<path d="M7950 5976 c0 -2 7 -6 15 -10 8 -3 15 -1 15 4 0 6 -7 10 -15 10 -8 0
-15 -2 -15 -4z"/>
<path d="M8132 5922 c6 -22 -16 -39 -27 -21 -4 5 -11 6 -17 3 -5 -3 3 -14 19
-24 19 -12 30 -14 35 -6 12 17 9 54 -4 62 -7 5 -9 0 -6 -14z"/>
<path d="M8020 5898 c0 -6 3 -8 7 -5 3 4 12 2 20 -4 8 -7 13 -8 13 -1 0 5 -7
13 -16 16 -22 8 -24 8 -24 -6z"/>
<path d="M7935 5828 c-14 -21 -14 -23 1 -26 9 -2 21 1 27 7 8 8 6 11 -8 11
-20 1 -20 1 -1 15 11 8 15 15 8 15 -6 0 -18 -10 -27 -22z"/>
<path d="M8026 5825 c-6 -17 9 -29 24 -20 14 9 12 22 -4 28 -8 3 -17 -1 -20
-8z"/>
<path d="M8136 5811 c-4 -5 -3 -17 1 -27 4 -10 2 -15 -4 -11 -5 3 -10 -1 -10
-10 0 -13 4 -12 18 5 9 12 23 22 29 22 10 0 10 3 0 15 -14 17 -26 19 -34 6z"/>
<path d="M8076 5794 c-3 -9 -10 -12 -16 -9 -6 3 -7 -1 -4 -10 9 -23 53 -10 54
16 0 15 -29 17 -34 3z"/>
<path d="M7940 5770 c0 -5 5 -10 11 -10 5 0 7 5 4 10 -3 6 -8 10 -11 10 -2 0
-4 -4 -4 -10z"/>
<path d="M8011 5712 c-7 -13 -11 -26 -8 -28 8 -8 29 25 25 38 -3 8 -9 4 -17
-10z"/>
<path d="M8154 5703 c-5 -19 -13 -23 -50 -23 -24 0 -44 5 -44 10 0 6 -4 10
-10 10 -14 0 -12 -63 3 -79 10 -11 9 -13 -6 -8 -16 6 -16 5 -1 -25 12 -22 13
-33 5 -36 -6 -2 -11 -11 -11 -19 0 -13 3 -13 15 -3 8 7 15 21 15 31 0 11 6 19
13 19 9 0 9 2 -1 9 -11 6 -9 13 10 33 13 13 31 27 41 31 9 3 17 11 17 16 0 6
7 8 15 5 17 -7 18 1 5 31 -9 19 -9 19 -16 -2z"/>
<path d="M8650 4945 c0 -8 4 -15 10 -15 5 0 7 7 4 15 -4 8 -8 15 -10 15 -2 0
-4 -7 -4 -15z"/>
<path d="M8716 4921 c-17 -7 -17 -8 -2 -24 24 -23 39 -22 27 2 -6 10 -7 21 -4
25 8 7 4 7 -21 -3z"/>
<path d="M9305 8160 c-3 -5 1 -10 10 -10 9 0 13 5 10 10 -3 6 -8 10 -10 10 -2
0 -7 -4 -10 -10z"/>
<path d="M9345 8050 c-3 -5 -2 -10 4 -10 5 0 13 5 16 10 3 6 2 10 -4 10 -5 0
-13 -4 -16 -10z"/>
<path d="M9620 7955 c0 -8 2 -15 4 -15 2 0 6 7 10 15 3 8 1 15 -4 15 -6 0 -10
-7 -10 -15z"/>
<path d="M10318 7742 c-4 -15 -1 -18 18 -14 13 2 24 11 24 18 0 21 -37 17 -42
-4z"/>
<path d="M10306 7663 c-6 -14 -5 -15 5 -6 7 7 10 15 7 18 -3 3 -9 -2 -12 -12z"/>
<path d="M10247 7646 c5 -15 3 -17 -7 -11 -10 6 -12 4 -7 -9 4 -10 7 -21 7
-24 0 -4 5 0 11 8 8 12 9 9 5 -13 -6 -26 -5 -27 14 -15 11 7 20 16 20 20 0 3
3 14 6 23 5 13 2 16 -12 13 -10 -2 -25 3 -32 12 -10 13 -11 12 -5 -4z m43 -20
c0 -3 -4 -8 -10 -11 -5 -3 -10 -1 -10 4 0 6 5 11 10 11 6 0 10 -2 10 -4z"/>
<path d="M10317 7634 c-3 -4 1 -21 10 -38 15 -28 17 -29 23 -11 12 31 -14 68
-33 49z"/>
<path d="M10373 7595 c0 -8 4 -15 9 -15 4 0 8 4 8 9 0 6 -4 12 -8 15 -5 3 -9
-1 -9 -9z"/>
<path d="M9415 7321 c-3 -5 -1 -12 5 -16 5 -3 10 1 10 9 0 18 -6 21 -15 7z"/>
<path d="M9143 7267 c0 -7 9 -14 20 -14 11 -1 18 -1 16 0 -2 2 -11 8 -20 15
-12 9 -16 9 -16 -1z"/>
<path d="M9296 7155 c-9 -23 -8 -25 9 -25 17 0 19 9 6 28 -7 11 -10 10 -15 -3z"/>
<path d="M9335 7160 c-3 -6 1 -7 9 -4 18 7 21 14 7 14 -6 0 -13 -4 -16 -10z"/>
<path d="M9055 7149 c-11 -16 -1 -19 13 -3 7 8 8 14 3 14 -5 0 -13 -5 -16 -11z"/>
<path d="M9399 7142 c7 -13 6 -23 -2 -32 -10 -10 -9 -11 3 -4 8 5 18 9 22 9
15 0 20 15 5 15 -9 0 -17 7 -17 15 0 8 -5 15 -10 15 -7 0 -7 -6 -1 -18z"/>
<path d="M9337 7124 c7 -3 9 -12 6 -20 -4 -11 -8 -12 -13 -4 -5 8 -9 7 -13 -4
-8 -21 7 -28 28 -12 20 14 15 47 -7 45 -9 0 -10 -2 -1 -5z"/>
<path d="M9168 7107 c-28 -11 -35 -22 -19 -31 4 -3 19 6 31 19 13 14 22 25 19
24 -2 -1 -16 -6 -31 -12z"/>
<path d="M9230 7061 c0 -17 18 -21 24 -6 3 9 0 15 -9 15 -8 0 -15 -4 -15 -9z"/>
<path d="M9274 7059 c-3 -6 1 -18 10 -27 9 -9 16 -11 16 -5 0 6 3 18 6 27 7
18 -21 23 -32 5z"/>
<path d="M9319 7048 c0 -2 -1 -23 -2 -46 -2 -32 2 -46 15 -53 29 -15 30 -10 7
23 -17 23 -19 30 -7 26 12 -5 14 -2 11 13 -3 10 -10 19 -15 19 -5 0 -6 5 -3
10 3 6 4 10 1 10 -3 0 -6 -1 -7 -2z"/>
<path d="M9876 7221 c-4 -7 -5 -15 -2 -18 9 -9 19 4 14 18 -4 11 -6 11 -12 0z"/>
<path d="M10041 7161 c-8 -5 -9 -11 -3 -15 5 -3 15 1 22 9 14 16 3 20 -19 6z"/>
<path d="M9825 6980 c4 -6 11 -8 16 -5 14 9 11 15 -7 15 -8 0 -12 -5 -9 -10z"/>
<path d="M9590 7240 c0 -5 5 -10 10 -10 6 0 10 5 10 10 0 6 -4 10 -10 10 -5 0
-10 -4 -10 -10z"/>
<path d="M9517 7179 c-7 -26 6 -32 21 -9 9 14 8 19 -2 23 -8 3 -16 -3 -19 -14z"/>
<path d="M9512 6778 c6 -18 25 -21 25 -3 0 8 -7 15 -14 15 -8 0 -13 -5 -11
-12z"/>
<path d="M9425 6660 c-3 -5 -2 -10 4 -10 5 0 13 5 16 10 3 6 2 10 -4 10 -5 0
-13 -4 -16 -10z"/>
<path d="M9450 6551 c0 -8 -7 -11 -17 -6 -15 5 -16 4 -5 -6 9 -10 15 -10 24
-1 6 6 9 15 5 19 -4 3 -7 1 -7 -6z"/>
<path d="M9516 6499 c-11 -10 -16 -22 -13 -26 4 -3 7 -1 7 5 0 7 7 12 15 12 8
0 15 7 15 15 0 18 -1 18 -24 -6z"/>
<path d="M7567 6150 c4 -16 8 -18 20 -9 11 10 11 14 1 20 -21 14 -26 10 -21
-11z"/>
<path d="M10311 6214 c0 -11 3 -14 6 -6 3 7 2 16 -1 19 -3 4 -6 -2 -5 -13z"/>
<path d="M7520 5936 c0 -9 5 -16 10 -16 6 0 10 4 10 9 0 6 -4 13 -10 16 -5 3
-10 -1 -10 -9z"/>
<path d="M6425 5840 c-3 -5 -1 -10 4 -10 6 0 11 5 11 10 0 6 -2 10 -4 10 -3 0
-8 -4 -11 -10z"/>
<path d="M10052 4788 c-7 -7 -12 -25 -12 -40 0 -24 2 -27 13 -16 8 7 12 20 9
30 -2 10 1 18 7 18 6 0 11 5 11 10 0 14 -13 13 -28 -2z"/>
<path d="M4013 2803 c-7 -2 -13 -13 -13 -24 0 -10 -4 -19 -10 -19 -5 0 -10 -7
-10 -15 0 -19 7 -19 27 1 9 8 24 14 33 11 13 -3 16 0 13 14 -3 10 -10 16 -16
12 -6 -4 -8 0 -4 10 6 17 2 19 -20 10z"/>
</g>
</svg>
